<svg xmlns="http://www.w3.org/2000/svg" xmlns:xlink="http://www.w3.org/1999/xlink" width="200" zoomAndPan="magnify" viewBox="0 0 150 149.999998" height="200" preserveAspectRatio="xMidYMid meet" version="1.0"><defs><filter x="0%" y="0%" width="100%" height="100%" id="796750bd2d"><feColorMatrix values="0 0 0 0 1 0 0 0 0 1 0 0 0 0 1 0 0 0 1 0" color-interpolation-filters="sRGB"/></filter><g/><mask id="e4f9885ecd"><g filter="url(#796750bd2d)"><rect x="-15" width="180" fill="#000000" y="-15" height="179.999997" fill-opacity="0.92"/></g></mask><clipPath id="2e584bd327"><path d="M 7.578125 5.074219 L 128.613281 5.074219 L 128.613281 146.441406 L 7.578125 146.441406 Z M 7.578125 5.074219 " clip-rule="nonzero"/></clipPath><clipPath id="09a84d53b2"><path d="M 68.09375 5.074219 L 128.613281 39.710938 L 128.613281 111.621094 L 68.09375 146.261719 L 7.578125 111.621094 L 7.578125 39.710938 Z M 68.09375 5.074219 " clip-rule="nonzero"/></clipPath><clipPath id="e65c8c5418"><path d="M 7.578125 5.074219 L 128.328125 5.074219 L 128.328125 146.074219 L 7.578125 146.074219 Z M 7.578125 5.074219 " clip-rule="nonzero"/></clipPath><clipPath id="daad74f677"><path d="M 68.09375 5.074219 L 128.605469 39.707031 L 128.605469 111.613281 L 68.09375 146.25 L 7.578125 111.613281 L 7.578125 39.707031 Z M 68.09375 5.074219 " clip-rule="nonzero"/></clipPath><clipPath id="da8fba4703"><rect x="0" width="136" y="0" height="150"/></clipPath><clipPath id="a5f910525c"><path d="M 18.90625 3.128906 L 143.40625 3.128906 L 143.40625 147.875 L 18.90625 147.875 Z M 18.90625 3.128906 " clip-rule="nonzero"/></clipPath><clipPath id="b3bbda7b15"><path d="M 81.074219 3.128906 L 143.242188 38.710938 L 143.242188 112.632812 L 81.074219 148.210938 L 18.90625 112.632812 L 18.90625 38.710938 Z M 81.074219 3.128906 " clip-rule="nonzero"/></clipPath></defs><g mask="url(#e4f9885ecd)"><g transform="matrix(1, 0, 0, 1, 13, -0.000000000000007527)"><g clip-path="url(#da8fba4703)"><g clip-path="url(#2e584bd327)"><g clip-path="url(#09a84d53b2)"><path fill="#afc58e" d="M 7.578125 5.074219 L 128.613281 5.074219 L 128.613281 146.441406 L 7.578125 146.441406 Z M 7.578125 5.074219 " fill-opacity="1" fill-rule="nonzero"/></g></g><g clip-path="url(#e65c8c5418)"><g clip-path="url(#daad74f677)"><path stroke-linecap="butt" transform="matrix(0.75, 0, 0, 0.75, 7.578533, 5.073283)" fill="none" stroke-linejoin="miter" d="M 80.686965 0.00124769 L 161.369267 46.178337 L 161.369267 142.053348 L 80.686965 188.235646 L -0.000544546 142.053348 L -0.000544546 46.178337 Z M 80.686965 0.00124769 " stroke="#f8f8f2" stroke-width="4" stroke-opacity="1" stroke-miterlimit="4"/></g></g></g></g></g><g fill="#708090" fill-opacity="1"><g transform="translate(39.593309, 90.094673)"><g><path d="M 1.390625 -16.9375 L 1.734375 -18.765625 C 1.929688 -19.828125 1.984375 -20.578125 1.890625 -21.015625 C 1.804688 -21.460938 1.765625 -21.6875 1.765625 -21.6875 C 1.765625 -21.6875 1.898438 -21.734375 2.171875 -21.828125 C 2.441406 -21.929688 2.890625 -21.984375 3.515625 -21.984375 C 4.828125 -21.984375 5.628906 -21.722656 5.921875 -21.203125 C 6.222656 -20.679688 6.257812 -19.820312 6.03125 -18.625 L 5.71875 -16.9375 L 9.078125 -16.9375 C 9.078125 -16.9375 9.113281 -16.875 9.1875 -16.75 C 9.269531 -16.625 9.3125 -16.445312 9.3125 -16.21875 C 9.3125 -15.925781 9.210938 -15.691406 9.015625 -15.515625 C 8.828125 -15.335938 8.539062 -15.25 8.15625 -15.25 L 5.421875 -15.25 L 3.796875 -5.921875 C 3.640625 -5.003906 3.722656 -4.28125 4.046875 -3.75 C 4.378906 -3.21875 4.9375 -2.953125 5.71875 -2.953125 C 6.695312 -2.953125 7.53125 -3.265625 8.21875 -3.890625 C 8.90625 -4.523438 9.429688 -5.191406 9.796875 -5.890625 C 10.015625 -5.890625 10.1875 -5.816406 10.3125 -5.671875 C 10.4375 -5.523438 10.46875 -5.304688 10.40625 -5.015625 C 10.238281 -4.335938 9.84375 -3.609375 9.21875 -2.828125 C 8.601562 -2.046875 7.835938 -1.378906 6.921875 -0.828125 C 6.015625 -0.273438 5.015625 0 3.921875 0 C 2.679688 0 1.625 -0.40625 0.75 -1.21875 C -0.113281 -2.03125 -0.546875 -3.113281 -0.546875 -4.46875 C -0.546875 -4.851562 -0.519531 -5.335938 -0.46875 -5.921875 C -0.425781 -6.515625 -0.328125 -7.238281 -0.171875 -8.09375 L 1.078125 -15.25 L -1.125 -15.25 C -1.125 -15.25 -1.160156 -15.304688 -1.234375 -15.421875 C -1.316406 -15.546875 -1.359375 -15.722656 -1.359375 -15.953125 C -1.359375 -16.242188 -1.253906 -16.476562 -1.046875 -16.65625 C -0.847656 -16.84375 -0.566406 -16.9375 -0.203125 -16.9375 Z M 1.390625 -16.9375 "/></g></g></g><g fill="#708090" fill-opacity="1"><g transform="translate(49.687342, 90.094673)"><g><path d="M 8.359375 -16.9375 C 10.347656 -16.9375 11.882812 -16.34375 12.96875 -15.15625 C 14.050781 -13.96875 14.59375 -12.40625 14.59375 -10.46875 C 14.59375 -10.101562 14.578125 -9.738281 14.546875 -9.375 C 14.515625 -9.019531 14.476562 -8.671875 14.4375 -8.328125 C 15.289062 -8.460938 16.019531 -8.742188 16.625 -9.171875 C 17.238281 -9.609375 17.707031 -10.015625 18.03125 -10.390625 C 18.363281 -10.773438 18.53125 -10.96875 18.53125 -10.96875 C 19 -10.96875 19.203125 -10.6875 19.140625 -10.125 C 19.066406 -9.738281 18.800781 -9.300781 18.34375 -8.8125 C 17.882812 -8.332031 17.285156 -7.898438 16.546875 -7.515625 C 15.816406 -7.128906 15 -6.882812 14.09375 -6.78125 C 13.53125 -4.769531 12.484375 -3.132812 10.953125 -1.875 C 9.429688 -0.625 7.519531 0 5.21875 0 C 3.4375 0 1.953125 -0.550781 0.765625 -1.65625 C -0.421875 -2.757812 -1.015625 -4.363281 -1.015625 -6.46875 C -1.015625 -8.519531 -0.640625 -10.332031 0.109375 -11.90625 C 0.867188 -13.476562 1.953125 -14.707031 3.359375 -15.59375 C 4.773438 -16.488281 6.441406 -16.9375 8.359375 -16.9375 Z M 8.5 -10.359375 C 8.5 -10.953125 8.644531 -11.457031 8.9375 -11.875 C 9.238281 -12.289062 9.671875 -12.554688 10.234375 -12.671875 C 10.046875 -14.410156 9.3125 -15.28125 8.03125 -15.28125 C 7.195312 -15.28125 6.375 -14.78125 5.5625 -13.78125 C 4.75 -12.789062 4.101562 -11.03125 3.625 -8.5 C 3.53125 -8.070312 3.453125 -7.488281 3.390625 -6.75 C 3.335938 -6.019531 3.3125 -5.441406 3.3125 -5.015625 C 3.3125 -3.953125 3.507812 -3.128906 3.90625 -2.546875 C 4.300781 -1.972656 4.851562 -1.6875 5.5625 -1.6875 C 6.476562 -1.6875 7.300781 -2.175781 8.03125 -3.15625 C 8.769531 -4.144531 9.359375 -5.65625 9.796875 -7.6875 C 8.929688 -8.34375 8.5 -9.234375 8.5 -10.359375 Z M 8.5 -10.359375 "/></g></g></g><g fill="#708090" fill-opacity="1"><g transform="translate(67.673687, 90.094673)"><g><path d="M 5.1875 -12.96875 C 6.65625 -15.613281 8.472656 -16.9375 10.640625 -16.9375 C 12.222656 -16.9375 13.429688 -16.414062 14.265625 -15.375 C 15.097656 -14.34375 15.515625 -12.941406 15.515625 -11.171875 C 15.515625 -10.679688 15.488281 -10.195312 15.4375 -9.71875 C 15.394531 -9.25 15.332031 -8.785156 15.25 -8.328125 C 15.894531 -8.398438 16.476562 -8.578125 17 -8.859375 C 17.519531 -9.140625 17.960938 -9.441406 18.328125 -9.765625 C 18.691406 -10.097656 18.96875 -10.378906 19.15625 -10.609375 C 19.34375 -10.847656 19.4375 -10.96875 19.4375 -10.96875 C 19.914062 -10.96875 20.117188 -10.6875 20.046875 -10.125 C 19.984375 -9.738281 19.710938 -9.296875 19.234375 -8.796875 C 18.765625 -8.304688 18.148438 -7.867188 17.390625 -7.484375 C 16.640625 -7.097656 15.800781 -6.863281 14.875 -6.78125 C 14.445312 -5.375 13.832031 -4.160156 13.03125 -3.140625 C 12.226562 -2.128906 11.320312 -1.351562 10.3125 -0.8125 C 9.3125 -0.269531 8.253906 0 7.140625 0 C 6.328125 0 5.585938 -0.148438 4.921875 -0.453125 C 4.253906 -0.765625 3.6875 -1.164062 3.21875 -1.65625 L 1.421875 8.640625 C 1.242188 9.703125 1.191406 10.453125 1.265625 10.890625 C 1.347656 11.328125 1.390625 11.546875 1.390625 11.546875 C 1.390625 11.546875 1.253906 11.597656 0.984375 11.703125 C 0.710938 11.804688 0.257812 11.859375 -0.375 11.859375 C -1.6875 11.859375 -2.484375 11.59375 -2.765625 11.0625 C -3.046875 10.53125 -3.082031 9.675781 -2.875 8.5 L 0.984375 -13.71875 C 1.160156 -14.78125 1.207031 -15.53125 1.125 -15.96875 C 1.050781 -16.40625 1.015625 -16.625 1.015625 -16.625 C 1.015625 -16.625 1.148438 -16.675781 1.421875 -16.78125 C 1.691406 -16.882812 2.144531 -16.9375 2.78125 -16.9375 C 4.09375 -16.9375 4.890625 -16.675781 5.171875 -16.15625 C 5.453125 -15.632812 5.488281 -14.773438 5.28125 -13.578125 Z M 9.421875 -10.359375 C 9.421875 -10.929688 9.566406 -11.429688 9.859375 -11.859375 C 10.148438 -12.285156 10.566406 -12.554688 11.109375 -12.671875 C 10.910156 -13.773438 10.359375 -14.328125 9.453125 -14.328125 C 8.484375 -14.328125 7.429688 -13.4375 6.296875 -11.65625 C 5.828125 -10.882812 5.367188 -9.972656 4.921875 -8.921875 C 4.484375 -7.867188 4.109375 -6.578125 3.796875 -5.046875 L 3.5625 -3.765625 C 3.78125 -3.398438 4.09375 -3.0625 4.5 -2.75 C 4.90625 -2.445312 5.445312 -2.296875 6.125 -2.296875 C 7.050781 -2.296875 7.929688 -2.789062 8.765625 -3.78125 C 9.609375 -4.78125 10.242188 -6.082031 10.671875 -7.6875 C 9.835938 -8.34375 9.421875 -9.234375 9.421875 -10.359375 Z M 9.421875 -10.359375 "/></g></g></g><g fill="#708090" fill-opacity="1"><g transform="translate(86.574594, 90.094673)"><g><path d="M 1.890625 -22.015625 C 1.890625 -22.710938 2.125 -23.289062 2.59375 -23.75 C 3.070312 -24.21875 3.628906 -24.453125 4.265625 -24.453125 C 4.921875 -24.453125 5.4375 -24.25 5.8125 -23.84375 C 6.1875 -23.4375 6.375 -22.929688 6.375 -22.328125 C 6.375 -21.734375 6.148438 -21.191406 5.703125 -20.703125 C 5.265625 -20.222656 4.671875 -19.984375 3.921875 -19.984375 C 3.316406 -19.984375 2.828125 -20.175781 2.453125 -20.5625 C 2.078125 -20.945312 1.890625 -21.429688 1.890625 -22.015625 Z M 0.71875 -13.71875 C 0.894531 -14.800781 0.941406 -15.554688 0.859375 -15.984375 C 0.785156 -16.410156 0.75 -16.625 0.75 -16.625 C 0.75 -16.625 0.882812 -16.675781 1.15625 -16.78125 C 1.425781 -16.882812 1.875 -16.9375 2.5 -16.9375 C 3.8125 -16.9375 4.609375 -16.675781 4.890625 -16.15625 C 5.171875 -15.632812 5.210938 -14.773438 5.015625 -13.578125 L 3.6875 -5.921875 C 3.53125 -4.910156 3.582031 -4.160156 3.84375 -3.671875 C 4.101562 -3.191406 4.539062 -2.953125 5.15625 -2.953125 C 5.738281 -2.953125 6.367188 -3.21875 7.046875 -3.75 C 7.722656 -4.28125 8.273438 -4.992188 8.703125 -5.890625 C 8.929688 -5.890625 9.109375 -5.820312 9.234375 -5.6875 C 9.359375 -5.550781 9.394531 -5.328125 9.34375 -5.015625 C 9.257812 -4.566406 9.050781 -4.054688 8.71875 -3.484375 C 8.394531 -2.921875 7.960938 -2.375 7.421875 -1.84375 C 6.878906 -1.3125 6.253906 -0.867188 5.546875 -0.515625 C 4.847656 -0.171875 4.09375 0 3.28125 0 C 2.113281 0 1.160156 -0.363281 0.421875 -1.09375 C -0.304688 -1.832031 -0.671875 -2.878906 -0.671875 -4.234375 C -0.671875 -4.578125 -0.648438 -5.03125 -0.609375 -5.59375 C -0.566406 -6.15625 -0.488281 -6.773438 -0.375 -7.453125 Z M 0.71875 -13.71875 "/></g></g></g><g fill="#708090" fill-opacity="1"><g transform="translate(95.618574, 90.094673)"><g><path d="M 6.640625 0 C 5.148438 0 3.828125 -0.289062 2.671875 -0.875 C 1.523438 -1.46875 0.625 -2.304688 -0.03125 -3.390625 C -0.6875 -4.472656 -1.015625 -5.738281 -1.015625 -7.1875 C -1.015625 -8.65625 -0.765625 -9.984375 -0.265625 -11.171875 C 0.222656 -12.367188 0.890625 -13.394531 1.734375 -14.25 C 2.585938 -15.113281 3.554688 -15.773438 4.640625 -16.234375 C 5.722656 -16.703125 6.84375 -16.9375 8 -16.9375 C 9.394531 -16.9375 10.535156 -16.570312 11.421875 -15.84375 C 12.316406 -15.125 12.765625 -14.210938 12.765625 -13.109375 C 12.765625 -12.117188 12.5 -11.285156 11.96875 -10.609375 C 11.4375 -9.929688 10.734375 -9.59375 9.859375 -9.59375 C 9.242188 -9.59375 8.816406 -9.726562 8.578125 -10 C 8.347656 -10.269531 8.234375 -10.40625 8.234375 -10.40625 C 8.234375 -10.40625 8.335938 -10.519531 8.546875 -10.75 C 8.765625 -10.988281 8.972656 -11.347656 9.171875 -11.828125 C 9.378906 -12.316406 9.484375 -12.9375 9.484375 -13.6875 C 9.484375 -14.15625 9.335938 -14.53125 9.046875 -14.8125 C 8.753906 -15.101562 8.378906 -15.25 7.921875 -15.25 C 7.222656 -15.25 6.523438 -14.941406 5.828125 -14.328125 C 5.128906 -13.722656 4.546875 -12.863281 4.078125 -11.75 C 3.617188 -10.644531 3.390625 -9.347656 3.390625 -7.859375 C 3.390625 -6.273438 3.820312 -5.015625 4.6875 -4.078125 C 5.5625 -3.140625 6.785156 -2.671875 8.359375 -2.671875 C 9.515625 -2.671875 10.515625 -2.835938 11.359375 -3.171875 C 12.210938 -3.515625 12.929688 -3.9375 13.515625 -4.4375 C 14.097656 -4.9375 14.539062 -5.421875 14.84375 -5.890625 C 15.332031 -5.890625 15.507812 -5.597656 15.375 -5.015625 C 15.289062 -4.648438 15.03125 -4.1875 14.59375 -3.625 C 14.164062 -3.0625 13.578125 -2.503906 12.828125 -1.953125 C 12.085938 -1.398438 11.195312 -0.9375 10.15625 -0.5625 C 9.125 -0.1875 7.953125 0 6.640625 0 Z M 6.640625 0 "/></g></g></g><g fill="#708090" fill-opacity="1"><g transform="translate(110.895109, 90.094673)"><g><path d="M 8.296875 -9.453125 C 9.535156 -8.816406 10.40625 -8.132812 10.90625 -7.40625 C 11.40625 -6.6875 11.65625 -5.878906 11.65625 -4.984375 C 11.65625 -4.097656 11.394531 -3.273438 10.875 -2.515625 C 10.351562 -1.765625 9.566406 -1.15625 8.515625 -0.6875 C 7.460938 -0.226562 6.113281 0 4.46875 0 C 3.019531 0 1.84375 -0.207031 0.9375 -0.625 C 0.0390625 -1.039062 -0.617188 -1.554688 -1.046875 -2.171875 C -1.472656 -2.796875 -1.6875 -3.40625 -1.6875 -4 C -1.6875 -4.65625 -1.460938 -5.15625 -1.015625 -5.5 C -0.566406 -5.851562 -0.046875 -6.03125 0.546875 -6.03125 C 1.128906 -6.03125 1.546875 -5.953125 1.796875 -5.796875 C 2.046875 -5.640625 2.171875 -5.5625 2.171875 -5.5625 C 2.171875 -5.5625 2.140625 -5.472656 2.078125 -5.296875 C 2.023438 -5.128906 2 -4.890625 2 -4.578125 C 2 -3.734375 2.222656 -3.046875 2.671875 -2.515625 C 3.128906 -1.992188 3.84375 -1.71875 4.8125 -1.6875 C 5.78125 -1.6875 6.492188 -1.898438 6.953125 -2.328125 C 7.421875 -2.765625 7.65625 -3.265625 7.65625 -3.828125 C 7.65625 -4.234375 7.53125 -4.609375 7.28125 -4.953125 C 7.03125 -5.304688 6.601562 -5.644531 6 -5.96875 L 2.671875 -7.71875 C 1.859375 -8.175781 1.164062 -8.710938 0.59375 -9.328125 C 0.0195312 -9.953125 -0.265625 -10.828125 -0.265625 -11.953125 C -0.265625 -13.335938 0.328125 -14.515625 1.515625 -15.484375 C 2.710938 -16.453125 4.507812 -16.9375 6.90625 -16.9375 C 8.3125 -16.9375 9.46875 -16.726562 10.375 -16.3125 C 11.289062 -15.894531 11.96875 -15.375 12.40625 -14.75 C 12.851562 -14.132812 13.078125 -13.53125 13.078125 -12.9375 C 13.078125 -12.300781 12.847656 -11.800781 12.390625 -11.4375 C 11.941406 -11.082031 11.425781 -10.90625 10.84375 -10.90625 C 10.28125 -10.90625 9.867188 -10.984375 9.609375 -11.140625 C 9.347656 -11.296875 9.21875 -11.375 9.21875 -11.375 C 9.21875 -11.375 9.242188 -11.460938 9.296875 -11.640625 C 9.359375 -11.828125 9.390625 -12.066406 9.390625 -12.359375 C 9.390625 -13.148438 9.144531 -13.828125 8.65625 -14.390625 C 8.164062 -14.960938 7.445312 -15.25 6.5 -15.25 C 5.570312 -15.25 4.875 -15.035156 4.40625 -14.609375 C 3.945312 -14.191406 3.71875 -13.691406 3.71875 -13.109375 C 3.71875 -12.609375 3.851562 -12.203125 4.125 -11.890625 C 4.40625 -11.578125 4.828125 -11.269531 5.390625 -10.96875 Z M 8.296875 -9.453125 "/></g></g></g><path stroke-linecap="round" transform="matrix(0.75, 0, 0, 0.75, 82.942247, 40.28376)" fill="none" stroke-linejoin="miter" d="M 0.498879 0.501862 L 26.191589 0.501862 " stroke="#ffffff" stroke-width="1" stroke-opacity="1" stroke-miterlimit="4"/><path stroke-linecap="round" transform="matrix(0.75, 0, 0, 0.75, 84.882947, 42.416044)" fill="none" stroke-linejoin="miter" d="M 0.499821 0.502566 L 26.187323 0.502566 " stroke="#708090" stroke-width="1" stroke-opacity="1" stroke-miterlimit="4"/><path stroke-linecap="round" transform="matrix(0.75, 0.00000000000000199, -0.00000000000000199, 0.75, 86.670757, 44.554072)" fill="none" stroke-linejoin="miter" d="M 0.501491 0.50082 L 15.5692 0.50082 " stroke="#ffffff" stroke-width="1" stroke-opacity="1" stroke-miterlimit="4"/><path stroke-linecap="round" transform="matrix(0.75, 0, 0, 0.75, 78.551327, 44.554072)" fill="none" stroke-linejoin="miter" d="M 0.499272 0.50082 L 7.150314 0.50082 " stroke="#ffffff" stroke-width="1" stroke-opacity="1" stroke-miterlimit="4"/><path stroke-linecap="round" transform="matrix(0.75, 0.00000000000000199, -0.00000000000000199, 0.75, 88.504302, 46.222149)" fill="none" stroke-linejoin="miter" d="M 0.499473 0.500676 L 15.567182 0.500676 " stroke="#708090" stroke-width="1" stroke-opacity="1" stroke-miterlimit="4"/><path stroke-linecap="round" transform="matrix(0.75, 0, 0, 0.75, 104.900021, 50.95954)" fill="none" stroke-linejoin="miter" d="M 0.497889 0.501864 L 15.513515 0.501864 " stroke="#708090" stroke-width="1" stroke-opacity="1" stroke-miterlimit="4"/><path stroke-linecap="round" transform="matrix(0.75, 0, 0, 0.75, 82.478435, 49.157987)" fill="none" stroke-linejoin="miter" d="M 0.497504 0.497684 L 21.158963 0.497684 " stroke="#ffffff" stroke-width="1" stroke-opacity="1" stroke-miterlimit="4"/><path stroke-linecap="round" transform="matrix(0.75, 0, 0, 0.75, 85.720119, 51.293145)" fill="none" stroke-linejoin="miter" d="M 0.498174 0.499766 L 21.159634 0.499766 " stroke="#708090" stroke-width="1" stroke-opacity="1" stroke-miterlimit="4"/><path stroke-linecap="round" transform="matrix(0.75, 0.000000000000003993, -0.000000000000003993, 0.75, 102.959321, 48.824354)" fill="none" stroke-linejoin="miter" d="M 0.502156 0.49982 L 15.512573 0.49982 " stroke="#ffffff" stroke-width="1" stroke-opacity="1" stroke-miterlimit="4"/><path stroke-linecap="round" transform="matrix(0.75, 0, 0, 0.75, 79.14472, 46.555751)" fill="none" stroke-linejoin="miter" d="M 0.499749 0.498582 L 7.150791 0.498582 " stroke="#708090" stroke-width="1" stroke-opacity="1" stroke-miterlimit="4"/><path stroke-linecap="round" transform="matrix(0.75, 0, 0, 0.75, 101.964173, 44.220439)" fill="none" stroke-linejoin="miter" d="M 0.500894 0.497749 L 5.20402 0.497749 " stroke="#ffffff" stroke-width="1" stroke-opacity="1" stroke-miterlimit="4"/><path stroke-linecap="round" transform="matrix(0.75, 0.000000000000005606, -0.000000000000005606, 0.75, 102.959321, 46.222149)" fill="none" stroke-linejoin="miter" d="M 0.502156 0.500676 L 5.205281 0.500676 " stroke="#708090" stroke-width="1" stroke-opacity="1" stroke-miterlimit="4"/><path stroke-linecap="round" transform="matrix(0.75, 0, 0, 0.75, 40.704364, 46.889385)" fill="none" stroke-linejoin="miter" d="M 0.498348 0.501654 L 8.941057 0.501654 " stroke="#ffffff" stroke-width="1" stroke-opacity="1" stroke-miterlimit="4"/><path stroke-linecap="round" transform="matrix(0.75, 0, 0, 0.75, 41.601253, 49.157987)" fill="none" stroke-linejoin="miter" d="M 0.500412 0.497684 L 10.219163 0.497684 " stroke="#708090" stroke-width="1" stroke-opacity="1" stroke-miterlimit="4"/><path stroke-linecap="round" transform="matrix(0.75, 0, 0, 0.75, 55.184782, 53.571121)" fill="none" stroke-linejoin="miter" d="M 0.498416 0.498922 L 5.201541 0.498922 " stroke="#ffffff" stroke-width="1" stroke-opacity="1" stroke-miterlimit="4"/><path stroke-linecap="round" transform="matrix(0.75, 0.000000000000003738, -0.000000000000003738, 0.75, 56.822254, 55.706279)" fill="none" stroke-linejoin="miter" d="M 0.497411 0.501003 L 5.200537 0.501003 " stroke="#708090" stroke-width="1" stroke-opacity="1" stroke-miterlimit="4"/><path stroke-linecap="round" transform="matrix(0.75, 0, 0, 0.75, 53.456991, 46.889385)" fill="none" stroke-linejoin="miter" d="M 0.500054 0.501654 L 15.51568 0.501654 " stroke="#ffffff" stroke-width="1" stroke-opacity="1" stroke-miterlimit="4"/><path stroke-linecap="round" transform="matrix(0.75, 0, 0, 0.75, 55.094463, 49.491592)" fill="none" stroke-linejoin="miter" d="M 0.49905 0.500794 L 15.514675 0.500794 " stroke="#708090" stroke-width="1" stroke-opacity="1" stroke-miterlimit="4"/><path stroke-linecap="round" transform="matrix(0.75, 0, 0, 0.75, 40.324364, 52.903885)" fill="none" stroke-linejoin="miter" d="M 0.499806 0.497945 L 11.921681 0.497945 " stroke="#ffffff" stroke-width="1" stroke-opacity="1" stroke-miterlimit="4"/><path stroke-linecap="round" transform="matrix(0.75, 0, 0, 0.75, 41.601253, 55.039043)" fill="none" stroke-linejoin="miter" d="M 0.500412 0.500026 L 11.91708 0.500026 " stroke="#708090" stroke-width="1" stroke-opacity="1" stroke-miterlimit="4"/><g fill="#ffffff" fill-opacity="1"><g transform="translate(41.188949, 90.023819)"><g><path d="M 1.40625 -17.0625 L 1.734375 -18.90625 C 1.941406 -19.976562 2 -20.734375 1.90625 -21.171875 C 1.820312 -21.617188 1.78125 -21.84375 1.78125 -21.84375 C 1.78125 -21.84375 1.914062 -21.894531 2.1875 -22 C 2.457031 -22.101562 2.910156 -22.15625 3.546875 -22.15625 C 4.867188 -22.15625 5.675781 -21.894531 5.96875 -21.375 C 6.269531 -20.851562 6.304688 -19.988281 6.078125 -18.78125 L 5.765625 -17.0625 L 9.15625 -17.0625 C 9.15625 -17.0625 9.191406 -17 9.265625 -16.875 C 9.347656 -16.75 9.390625 -16.578125 9.390625 -16.359375 C 9.390625 -16.054688 9.289062 -15.8125 9.09375 -15.625 C 8.90625 -15.445312 8.617188 -15.359375 8.234375 -15.359375 L 5.46875 -15.359375 L 3.828125 -5.96875 C 3.660156 -5.039062 3.742188 -4.304688 4.078125 -3.765625 C 4.410156 -3.234375 4.972656 -2.96875 5.765625 -2.96875 C 6.742188 -2.96875 7.582031 -3.285156 8.28125 -3.921875 C 8.976562 -4.554688 9.503906 -5.226562 9.859375 -5.9375 C 10.085938 -5.9375 10.265625 -5.863281 10.390625 -5.71875 C 10.515625 -5.570312 10.546875 -5.347656 10.484375 -5.046875 C 10.316406 -4.367188 9.921875 -3.632812 9.296875 -2.84375 C 8.671875 -2.0625 7.894531 -1.390625 6.96875 -0.828125 C 6.050781 -0.273438 5.046875 0 3.953125 0 C 2.703125 0 1.640625 -0.40625 0.765625 -1.21875 C -0.109375 -2.039062 -0.546875 -3.132812 -0.546875 -4.5 C -0.546875 -4.894531 -0.519531 -5.382812 -0.46875 -5.96875 C -0.425781 -6.5625 -0.328125 -7.289062 -0.171875 -8.15625 L 1.09375 -15.359375 L -1.125 -15.359375 C -1.125 -15.359375 -1.160156 -15.421875 -1.234375 -15.546875 C -1.316406 -15.671875 -1.359375 -15.847656 -1.359375 -16.078125 C -1.359375 -16.378906 -1.253906 -16.617188 -1.046875 -16.796875 C -0.847656 -16.972656 -0.566406 -17.0625 -0.203125 -17.0625 Z M 1.40625 -17.0625 "/></g></g></g><g fill="#ffffff" fill-opacity="1"><g transform="translate(51.361692, 90.023819)"><g><path d="M 8.4375 -17.0625 C 10.4375 -17.0625 11.984375 -16.460938 13.078125 -15.265625 C 14.171875 -14.078125 14.71875 -12.503906 14.71875 -10.546875 C 14.71875 -10.179688 14.695312 -9.816406 14.65625 -9.453125 C 14.625 -9.085938 14.585938 -8.738281 14.546875 -8.40625 C 15.410156 -8.539062 16.148438 -8.820312 16.765625 -9.25 C 17.378906 -9.6875 17.847656 -10.097656 18.171875 -10.484375 C 18.503906 -10.867188 18.671875 -11.0625 18.671875 -11.0625 C 19.148438 -11.0625 19.359375 -10.773438 19.296875 -10.203125 C 19.222656 -9.816406 18.953125 -9.378906 18.484375 -8.890625 C 18.015625 -8.398438 17.410156 -7.960938 16.671875 -7.578125 C 15.929688 -7.191406 15.109375 -6.941406 14.203125 -6.828125 C 13.628906 -4.804688 12.570312 -3.160156 11.03125 -1.890625 C 9.5 -0.628906 7.570312 0 5.25 0 C 3.457031 0 1.960938 -0.554688 0.765625 -1.671875 C -0.429688 -2.785156 -1.03125 -4.398438 -1.03125 -6.515625 C -1.03125 -8.585938 -0.648438 -10.414062 0.109375 -12 C 0.878906 -13.582031 1.972656 -14.820312 3.390625 -15.71875 C 4.816406 -16.613281 6.5 -17.0625 8.4375 -17.0625 Z M 8.5625 -10.453125 C 8.5625 -11.035156 8.707031 -11.535156 9 -11.953125 C 9.300781 -12.378906 9.738281 -12.648438 10.3125 -12.765625 C 10.125 -14.515625 9.382812 -15.390625 8.09375 -15.390625 C 7.25 -15.390625 6.414062 -14.890625 5.59375 -13.890625 C 4.78125 -12.890625 4.132812 -11.113281 3.65625 -8.5625 C 3.5625 -8.132812 3.484375 -7.550781 3.421875 -6.8125 C 3.367188 -6.070312 3.34375 -5.484375 3.34375 -5.046875 C 3.34375 -3.984375 3.539062 -3.160156 3.9375 -2.578125 C 4.34375 -1.992188 4.894531 -1.703125 5.59375 -1.703125 C 6.53125 -1.703125 7.367188 -2.195312 8.109375 -3.1875 C 8.847656 -4.175781 9.429688 -5.695312 9.859375 -7.75 C 8.992188 -8.40625 8.5625 -9.304688 8.5625 -10.453125 Z M 8.5625 -10.453125 "/></g></g></g><g fill="#ffffff" fill-opacity="1"><g transform="translate(69.488289, 90.023819)"><g><path d="M 5.21875 -13.078125 C 6.695312 -15.734375 8.53125 -17.0625 10.71875 -17.0625 C 12.3125 -17.0625 13.53125 -16.535156 14.375 -15.484375 C 15.21875 -14.441406 15.640625 -13.035156 15.640625 -11.265625 C 15.640625 -10.765625 15.613281 -10.273438 15.5625 -9.796875 C 15.519531 -9.316406 15.453125 -8.851562 15.359375 -8.40625 C 16.023438 -8.46875 16.617188 -8.640625 17.140625 -8.921875 C 17.660156 -9.210938 18.101562 -9.519531 18.46875 -9.84375 C 18.832031 -10.175781 19.109375 -10.460938 19.296875 -10.703125 C 19.492188 -10.941406 19.59375 -11.0625 19.59375 -11.0625 C 20.070312 -11.0625 20.28125 -10.773438 20.21875 -10.203125 C 20.144531 -9.816406 19.867188 -9.375 19.390625 -8.875 C 18.910156 -8.375 18.289062 -7.929688 17.53125 -7.546875 C 16.769531 -7.160156 15.921875 -6.921875 14.984375 -6.828125 C 14.554688 -5.421875 13.9375 -4.203125 13.125 -3.171875 C 12.320312 -2.148438 11.410156 -1.363281 10.390625 -0.8125 C 9.378906 -0.269531 8.316406 0 7.203125 0 C 6.378906 0 5.628906 -0.148438 4.953125 -0.453125 C 4.285156 -0.765625 3.71875 -1.171875 3.25 -1.671875 L 1.4375 8.703125 C 1.25 9.773438 1.195312 10.53125 1.28125 10.96875 C 1.363281 11.414062 1.40625 11.640625 1.40625 11.640625 C 1.40625 11.640625 1.265625 11.691406 0.984375 11.796875 C 0.710938 11.898438 0.257812 11.953125 -0.375 11.953125 C -1.695312 11.953125 -2.5 11.679688 -2.78125 11.140625 C -3.0625 10.609375 -3.101562 9.75 -2.90625 8.5625 L 0.984375 -13.828125 C 1.171875 -14.898438 1.222656 -15.65625 1.140625 -16.09375 C 1.066406 -16.539062 1.03125 -16.765625 1.03125 -16.765625 C 1.03125 -16.765625 1.164062 -16.8125 1.4375 -16.90625 C 1.707031 -17.007812 2.160156 -17.0625 2.796875 -17.0625 C 4.117188 -17.0625 4.921875 -16.800781 5.203125 -16.28125 C 5.492188 -15.757812 5.535156 -14.894531 5.328125 -13.6875 Z M 9.484375 -10.453125 C 9.484375 -11.015625 9.628906 -11.507812 9.921875 -11.9375 C 10.222656 -12.375 10.648438 -12.648438 11.203125 -12.765625 C 10.992188 -13.878906 10.4375 -14.4375 9.53125 -14.4375 C 8.550781 -14.4375 7.488281 -13.539062 6.34375 -11.75 C 5.875 -10.96875 5.414062 -10.046875 4.96875 -8.984375 C 4.519531 -7.929688 4.140625 -6.632812 3.828125 -5.09375 L 3.578125 -3.796875 C 3.804688 -3.429688 4.125 -3.09375 4.53125 -2.78125 C 4.945312 -2.476562 5.492188 -2.328125 6.171875 -2.328125 C 7.109375 -2.328125 8 -2.828125 8.84375 -3.828125 C 9.6875 -4.828125 10.320312 -6.132812 10.75 -7.75 C 9.90625 -8.40625 9.484375 -9.304688 9.484375 -10.453125 Z M 9.484375 -10.453125 "/></g></g></g><g fill="#ffffff" fill-opacity="1"><g transform="translate(88.536579, 90.023819)"><g><path d="M 1.90625 -22.1875 C 1.90625 -22.894531 2.144531 -23.484375 2.625 -23.953125 C 3.101562 -24.421875 3.660156 -24.65625 4.296875 -24.65625 C 4.960938 -24.65625 5.484375 -24.445312 5.859375 -24.03125 C 6.234375 -23.625 6.421875 -23.113281 6.421875 -22.5 C 6.421875 -21.90625 6.195312 -21.363281 5.75 -20.875 C 5.3125 -20.382812 4.710938 -20.140625 3.953125 -20.140625 C 3.335938 -20.140625 2.84375 -20.332031 2.46875 -20.71875 C 2.09375 -21.101562 1.90625 -21.59375 1.90625 -22.1875 Z M 0.71875 -13.828125 C 0.894531 -14.921875 0.941406 -15.679688 0.859375 -16.109375 C 0.785156 -16.546875 0.75 -16.765625 0.75 -16.765625 C 0.75 -16.765625 0.882812 -16.8125 1.15625 -16.90625 C 1.4375 -17.007812 1.894531 -17.0625 2.53125 -17.0625 C 3.84375 -17.0625 4.640625 -16.800781 4.921875 -16.28125 C 5.210938 -15.757812 5.253906 -14.894531 5.046875 -13.6875 L 3.71875 -5.96875 C 3.5625 -4.945312 3.613281 -4.191406 3.875 -3.703125 C 4.132812 -3.210938 4.570312 -2.96875 5.1875 -2.96875 C 5.78125 -2.96875 6.414062 -3.234375 7.09375 -3.765625 C 7.78125 -4.304688 8.34375 -5.03125 8.78125 -5.9375 C 9 -5.9375 9.171875 -5.867188 9.296875 -5.734375 C 9.421875 -5.597656 9.460938 -5.367188 9.421875 -5.046875 C 9.328125 -4.597656 9.113281 -4.085938 8.78125 -3.515625 C 8.457031 -2.941406 8.019531 -2.390625 7.46875 -1.859375 C 6.925781 -1.328125 6.300781 -0.882812 5.59375 -0.53125 C 4.894531 -0.175781 4.132812 0 3.3125 0 C 2.125 0 1.160156 -0.367188 0.421875 -1.109375 C -0.316406 -1.847656 -0.6875 -2.898438 -0.6875 -4.265625 C -0.6875 -4.609375 -0.660156 -5.0625 -0.609375 -5.625 C -0.566406 -6.195312 -0.488281 -6.828125 -0.375 -7.515625 Z M 0.71875 -13.828125 "/></g></g></g><g fill="#ffffff" fill-opacity="1"><g transform="translate(97.651081, 90.023819)"><g><path d="M 6.6875 0 C 5.1875 0 3.851562 -0.296875 2.6875 -0.890625 C 1.53125 -1.484375 0.625 -2.320312 -0.03125 -3.40625 C -0.695312 -4.5 -1.03125 -5.773438 -1.03125 -7.234375 C -1.03125 -8.710938 -0.773438 -10.054688 -0.265625 -11.265625 C 0.234375 -12.472656 0.90625 -13.507812 1.75 -14.375 C 2.601562 -15.238281 3.578125 -15.898438 4.671875 -16.359375 C 5.765625 -16.828125 6.894531 -17.0625 8.0625 -17.0625 C 9.46875 -17.0625 10.617188 -16.695312 11.515625 -15.96875 C 12.421875 -15.25 12.875 -14.332031 12.875 -13.21875 C 12.875 -12.207031 12.601562 -11.359375 12.0625 -10.671875 C 11.53125 -9.992188 10.820312 -9.65625 9.9375 -9.65625 C 9.320312 -9.65625 8.894531 -9.789062 8.65625 -10.0625 C 8.414062 -10.34375 8.296875 -10.484375 8.296875 -10.484375 C 8.296875 -10.484375 8.398438 -10.601562 8.609375 -10.84375 C 8.828125 -11.082031 9.039062 -11.445312 9.25 -11.9375 C 9.457031 -12.425781 9.5625 -13.046875 9.5625 -13.796875 C 9.5625 -14.273438 9.410156 -14.65625 9.109375 -14.9375 C 8.816406 -15.21875 8.441406 -15.359375 7.984375 -15.359375 C 7.285156 -15.359375 6.582031 -15.050781 5.875 -14.4375 C 5.164062 -13.820312 4.578125 -12.957031 4.109375 -11.84375 C 3.640625 -10.726562 3.40625 -9.421875 3.40625 -7.921875 C 3.40625 -6.328125 3.84375 -5.054688 4.71875 -4.109375 C 5.601562 -3.171875 6.84375 -2.703125 8.4375 -2.703125 C 9.59375 -2.703125 10.597656 -2.867188 11.453125 -3.203125 C 12.304688 -3.546875 13.03125 -3.96875 13.625 -4.46875 C 14.21875 -4.96875 14.660156 -5.457031 14.953125 -5.9375 C 15.453125 -5.9375 15.632812 -5.640625 15.5 -5.046875 C 15.40625 -4.679688 15.140625 -4.210938 14.703125 -3.640625 C 14.273438 -3.078125 13.6875 -2.515625 12.9375 -1.953125 C 12.1875 -1.398438 11.285156 -0.9375 10.234375 -0.5625 C 9.191406 -0.1875 8.007812 0 6.6875 0 Z M 6.6875 0 "/></g></g></g><g fill="#ffffff" fill-opacity="1"><g transform="translate(113.046737, 90.023819)"><g><path d="M 8.359375 -9.53125 C 9.609375 -8.882812 10.484375 -8.195312 10.984375 -7.46875 C 11.492188 -6.75 11.75 -5.929688 11.75 -5.015625 C 11.75 -4.128906 11.484375 -3.304688 10.953125 -2.546875 C 10.429688 -1.785156 9.640625 -1.171875 8.578125 -0.703125 C 7.523438 -0.234375 6.164062 0 4.5 0 C 3.050781 0 1.867188 -0.207031 0.953125 -0.625 C 0.046875 -1.050781 -0.617188 -1.578125 -1.046875 -2.203125 C -1.484375 -2.828125 -1.703125 -3.4375 -1.703125 -4.03125 C -1.703125 -4.6875 -1.472656 -5.191406 -1.015625 -5.546875 C -0.566406 -5.898438 -0.046875 -6.078125 0.546875 -6.078125 C 1.140625 -6.078125 1.5625 -5.992188 1.8125 -5.828125 C 2.0625 -5.671875 2.1875 -5.59375 2.1875 -5.59375 C 2.1875 -5.59375 2.15625 -5.507812 2.09375 -5.34375 C 2.039062 -5.175781 2.015625 -4.929688 2.015625 -4.609375 C 2.015625 -3.765625 2.238281 -3.070312 2.6875 -2.53125 C 3.144531 -2 3.863281 -1.722656 4.84375 -1.703125 C 5.820312 -1.703125 6.546875 -1.914062 7.015625 -2.34375 C 7.484375 -2.78125 7.71875 -3.285156 7.71875 -3.859375 C 7.71875 -4.265625 7.59375 -4.644531 7.34375 -5 C 7.09375 -5.351562 6.660156 -5.691406 6.046875 -6.015625 L 2.703125 -7.78125 C 1.878906 -8.238281 1.175781 -8.78125 0.59375 -9.40625 C 0.0195312 -10.03125 -0.265625 -10.910156 -0.265625 -12.046875 C -0.265625 -13.441406 0.332031 -14.625 1.53125 -15.59375 C 2.738281 -16.570312 4.550781 -17.0625 6.96875 -17.0625 C 8.375 -17.0625 9.535156 -16.851562 10.453125 -16.4375 C 11.378906 -16.019531 12.0625 -15.492188 12.5 -14.859375 C 12.945312 -14.234375 13.171875 -13.628906 13.171875 -13.046875 C 13.171875 -12.398438 12.941406 -11.894531 12.484375 -11.53125 C 12.035156 -11.175781 11.515625 -11 10.921875 -11 C 10.359375 -11 9.941406 -11.078125 9.671875 -11.234375 C 9.410156 -11.390625 9.28125 -11.46875 9.28125 -11.46875 C 9.28125 -11.46875 9.304688 -11.554688 9.359375 -11.734375 C 9.421875 -11.921875 9.453125 -12.164062 9.453125 -12.46875 C 9.453125 -13.257812 9.207031 -13.9375 8.71875 -14.5 C 8.226562 -15.070312 7.507812 -15.359375 6.5625 -15.359375 C 5.625 -15.359375 4.921875 -15.144531 4.453125 -14.71875 C 3.984375 -14.300781 3.75 -13.800781 3.75 -13.21875 C 3.75 -12.71875 3.882812 -12.304688 4.15625 -11.984375 C 4.4375 -11.660156 4.859375 -11.351562 5.421875 -11.0625 Z M 8.359375 -9.53125 "/></g></g></g><g clip-path="url(#a5f910525c)"><g clip-path="url(#b3bbda7b15)"><path stroke-linecap="butt" transform="matrix(0.75, 0, 0, 0.75, 18.907632, 3.130341)" fill="none" stroke-linejoin="miter" d="M 82.888793 -0.00191251 L 165.779428 47.440802 L 165.779428 146.003314 L 82.888793 193.440819 L -0.00184254 146.003314 L -0.00184254 47.440802 Z M 82.888793 -0.00191251 " stroke="#708090" stroke-width="4" stroke-opacity="1" stroke-miterlimit="4"/></g></g><path stroke-linecap="round" transform="matrix(0.75, 0.000000000000011213, -0.000000000000011213, 0.75, 63.32857, 53.23749)" fill="none" stroke-linejoin="miter" d="M 0.499407 0.501055 L 5.202533 0.501055 " stroke="#ffffff" stroke-width="1" stroke-opacity="1" stroke-miterlimit="4"/><path stroke-linecap="round" transform="matrix(0.75, 0, 0, 0.75, 64.736789, 55.372674)" fill="none" stroke-linejoin="miter" d="M 0.50199 0.497893 L 5.205115 0.497893 " stroke="#708090" stroke-width="1" stroke-opacity="1" stroke-miterlimit="4"/><path stroke-linecap="round" transform="matrix(0.75, 0, 0, 0.75, 52.225352, 61.137421)" fill="none" stroke-linejoin="miter" d="M 0.501614 0.499064 L 7.152656 0.499064 " stroke="#708090" stroke-width="1" stroke-opacity="1" stroke-miterlimit="4"/><path stroke-linecap="round" transform="matrix(0.75, 0, 0, 0.75, 51.084025, 58.632714)" fill="none" stroke-linejoin="miter" d="M 0.50255 0.500132 L 7.148384 0.500132 " stroke="#ffffff" stroke-width="1" stroke-opacity="1" stroke-miterlimit="4"/><path stroke-linecap="round" transform="matrix(0.75, 0.000000000000005325, -0.000000000000005325, 0.75, 95.226404, 101.190757)" fill="none" stroke-linejoin="miter" d="M 0.500212 0.500866 L 15.515838 0.500866 " stroke="#708090" stroke-width="1" stroke-opacity="1" stroke-miterlimit="4"/><path stroke-linecap="round" transform="matrix(0.75, 0, 0, 0.75, 94.550921, 99.133943)" fill="none" stroke-linejoin="miter" d="M 0.499813 0.498493 L 15.515439 0.498493 " stroke="#f8f8f2" stroke-width="1" stroke-opacity="1" stroke-miterlimit="4"/><path stroke-linecap="round" transform="matrix(0.75, 0, 0, 0.75, 89.488179, 107.257553)" fill="none" stroke-linejoin="miter" d="M 0.500136 0.500346 L 7.151178 0.500346 " stroke="#708090" stroke-width="1" stroke-opacity="1" stroke-miterlimit="4"/><path stroke-linecap="round" transform="matrix(0.75, 0, 0, 0.75, 88.812697, 104.04483)" fill="none" stroke-linejoin="miter" d="M 0.499738 0.497519 L 7.15078 0.497519 " stroke="#f8f8f2" stroke-width="1" stroke-opacity="1" stroke-miterlimit="4"/><path stroke-linecap="round" transform="matrix(0.75, 0, 0, 0.75, 99.114605, 106.923922)" fill="none" stroke-linejoin="miter" d="M 0.498235 0.502479 L 21.159694 0.502479 " stroke="#708090" stroke-width="1" stroke-opacity="1" stroke-miterlimit="4"/><path stroke-linecap="round" transform="matrix(0.75, 0, 0, 0.75, 96.777989, 104.378434)" fill="none" stroke-linejoin="miter" d="M 0.499139 0.500629 L 21.160599 0.500629 " stroke="#f8f8f2" stroke-width="1" stroke-opacity="1" stroke-miterlimit="4"/><path stroke-linecap="round" transform="matrix(0.75, 0, 0, 0.75, 99.825516, 113.421967)" fill="none" stroke-linejoin="miter" d="M 0.49827 0.499877 L 5.201395 0.499877 " stroke="#708090" stroke-width="1" stroke-opacity="1" stroke-miterlimit="4"/><path stroke-linecap="round" transform="matrix(0.75, 0, 0, 0.75, 98.417376, 109.935552)" fill="none" stroke-linejoin="miter" d="M 0.50079 0.502597 L 5.203915 0.502597 " stroke="#f8f8f2" stroke-width="1" stroke-opacity="1" stroke-miterlimit="4"/></svg>