<svg xmlns="http://www.w3.org/2000/svg" xmlns:xlink="http://www.w3.org/1999/xlink" width="500" zoomAndPan="magnify" viewBox="0 0 375 374.999991" height="500" preserveAspectRatio="xMidYMid meet" version="1.0"><defs><filter x="0%" y="0%" width="100%" height="100%" id="3fbdbb039b"><feColorMatrix values="0 0 0 0 1 0 0 0 0 1 0 0 0 0 1 0 0 0 1 0" color-interpolation-filters="sRGB"/></filter><g/><mask id="2af53e330a"><g filter="url(#3fbdbb039b)"><rect x="-37.5" width="450" fill="#000000" y="-37.499999" height="449.999989" fill-opacity="0.92"/></g></mask><clipPath id="6f4a68c9af"><path d="M 24.71875 24.59375 L 160.769531 24.59375 L 160.769531 183.496094 L 24.71875 183.496094 Z M 24.71875 24.59375 " clip-rule="nonzero"/></clipPath><clipPath id="d5bb3edf4e"><path d="M 92.746094 24.59375 L 160.769531 63.527344 L 160.769531 144.359375 L 92.746094 183.292969 L 24.71875 144.359375 L 24.71875 63.527344 Z M 92.746094 24.59375 " clip-rule="nonzero"/></clipPath><clipPath id="f208bc1d40"><path d="M 24.71875 24.597656 L 160.46875 24.597656 L 160.46875 183.59375 L 24.71875 183.59375 Z M 24.71875 24.597656 " clip-rule="nonzero"/></clipPath><clipPath id="0c15947624"><path d="M 92.742188 24.597656 L 160.761719 63.527344 L 160.761719 144.355469 L 92.742188 183.289062 L 24.71875 144.355469 L 24.71875 63.527344 Z M 92.742188 24.597656 " clip-rule="nonzero"/></clipPath><clipPath id="c716cf7c3f"><rect x="0" width="186" y="0" height="208"/></clipPath><clipPath id="80fad7f3f1"><path d="M 121.722656 100.59375 L 258 100.59375 L 258 259.59375 L 121.722656 259.59375 Z M 121.722656 100.59375 " clip-rule="nonzero"/></clipPath><clipPath id="e1d792d87c"><path d="M 189.816406 100.59375 L 257.914062 139.570312 L 257.914062 220.539062 L 189.816406 259.511719 L 121.722656 220.539062 L 121.722656 139.570312 Z M 189.816406 100.59375 " clip-rule="nonzero"/></clipPath></defs><g mask="url(#2af53e330a)"><g transform="matrix(1, 0, 0, 1, 97, 76)"><g clip-path="url(#c716cf7c3f)"><g clip-path="url(#6f4a68c9af)"><g clip-path="url(#d5bb3edf4e)"><path fill="#afc58e" d="M 24.71875 24.59375 L 160.769531 24.59375 L 160.769531 183.496094 L 24.71875 183.496094 Z M 24.71875 24.59375 " fill-opacity="1" fill-rule="nonzero"/></g></g><g clip-path="url(#f208bc1d40)"><g clip-path="url(#0c15947624)"><path stroke-linecap="butt" transform="matrix(0.75, 0, 0, 0.75, 24.720104, 24.596204)" fill="none" stroke-linejoin="miter" d="M 90.696112 0.00193586 L 181.38882 51.908186 L 181.38882 159.679019 L 90.696112 211.590478 L -0.00180516 159.679019 L -0.00180516 51.908186 Z M 90.696112 0.00193586 " stroke="#f8f8f2" stroke-width="15" stroke-opacity="1" stroke-miterlimit="4"/></g></g></g></g></g><g fill="#708090" fill-opacity="1"><g transform="translate(143.095929, 196.161846)"><g><path d="M 1.5625 -19.03125 L 1.9375 -21.09375 C 2.164062 -22.289062 2.226562 -23.132812 2.125 -23.625 C 2.03125 -24.125 1.984375 -24.375 1.984375 -24.375 C 1.984375 -24.375 2.132812 -24.429688 2.4375 -24.546875 C 2.738281 -24.660156 3.242188 -24.71875 3.953125 -24.71875 C 5.429688 -24.71875 6.332031 -24.425781 6.65625 -23.84375 C 6.988281 -23.257812 7.03125 -22.289062 6.78125 -20.9375 L 6.4375 -19.03125 L 10.203125 -19.03125 C 10.203125 -19.03125 10.242188 -18.960938 10.328125 -18.828125 C 10.421875 -18.691406 10.46875 -18.492188 10.46875 -18.234375 C 10.46875 -17.910156 10.359375 -17.644531 10.140625 -17.4375 C 9.929688 -17.238281 9.609375 -17.140625 9.171875 -17.140625 L 6.09375 -17.140625 L 4.265625 -6.65625 C 4.085938 -5.625 4.179688 -4.804688 4.546875 -4.203125 C 4.921875 -3.609375 5.550781 -3.3125 6.4375 -3.3125 C 7.53125 -3.3125 8.460938 -3.664062 9.234375 -4.375 C 10.003906 -5.082031 10.59375 -5.832031 11 -6.625 C 11.257812 -6.625 11.457031 -6.539062 11.59375 -6.375 C 11.726562 -6.207031 11.757812 -5.960938 11.6875 -5.640625 C 11.507812 -4.878906 11.070312 -4.054688 10.375 -3.171875 C 9.675781 -2.296875 8.8125 -1.546875 7.78125 -0.921875 C 6.757812 -0.304688 5.640625 0 4.421875 0 C 3.023438 0 1.835938 -0.453125 0.859375 -1.359375 C -0.117188 -2.273438 -0.609375 -3.5 -0.609375 -5.03125 C -0.609375 -5.457031 -0.582031 -6 -0.53125 -6.65625 C -0.476562 -7.320312 -0.363281 -8.132812 -0.1875 -9.09375 L 1.21875 -17.140625 L -1.25 -17.140625 C -1.25 -17.140625 -1.289062 -17.207031 -1.375 -17.34375 C -1.46875 -17.476562 -1.515625 -17.675781 -1.515625 -17.9375 C -1.515625 -18.269531 -1.398438 -18.535156 -1.171875 -18.734375 C -0.953125 -18.929688 -0.640625 -19.03125 -0.234375 -19.03125 Z M 1.5625 -19.03125 "/></g></g></g><g fill="#708090" fill-opacity="1"><g transform="translate(154.442031, 196.161846)"><g><path d="M 9.40625 -19.03125 C 11.632812 -19.03125 13.359375 -18.363281 14.578125 -17.03125 C 15.796875 -15.707031 16.40625 -13.953125 16.40625 -11.765625 C 16.40625 -11.359375 16.382812 -10.953125 16.34375 -10.546875 C 16.3125 -10.140625 16.269531 -9.75 16.21875 -9.375 C 17.1875 -9.519531 18.007812 -9.832031 18.6875 -10.3125 C 19.375 -10.800781 19.898438 -11.257812 20.265625 -11.6875 C 20.640625 -12.125 20.828125 -12.34375 20.828125 -12.34375 C 21.359375 -12.34375 21.585938 -12.023438 21.515625 -11.390625 C 21.441406 -10.953125 21.144531 -10.457031 20.625 -9.90625 C 20.101562 -9.363281 19.425781 -8.878906 18.59375 -8.453125 C 17.769531 -8.023438 16.851562 -7.742188 15.84375 -7.609375 C 15.207031 -5.359375 14.03125 -3.523438 12.3125 -2.109375 C 10.601562 -0.703125 8.453125 0 5.859375 0 C 3.859375 0 2.191406 -0.617188 0.859375 -1.859375 C -0.472656 -3.109375 -1.140625 -4.910156 -1.140625 -7.265625 C -1.140625 -9.578125 -0.71875 -11.613281 0.125 -13.375 C 0.976562 -15.144531 2.195312 -16.53125 3.78125 -17.53125 C 5.375 -18.53125 7.25 -19.03125 9.40625 -19.03125 Z M 9.5625 -11.65625 C 9.5625 -12.3125 9.722656 -12.875 10.046875 -13.34375 C 10.378906 -13.8125 10.863281 -14.109375 11.5 -14.234375 C 11.289062 -16.191406 10.46875 -17.171875 9.03125 -17.171875 C 8.082031 -17.171875 7.148438 -16.613281 6.234375 -15.5 C 5.328125 -14.382812 4.609375 -12.40625 4.078125 -9.5625 C 3.972656 -9.070312 3.890625 -8.414062 3.828125 -7.59375 C 3.765625 -6.769531 3.734375 -6.117188 3.734375 -5.640625 C 3.734375 -4.441406 3.953125 -3.519531 4.390625 -2.875 C 4.835938 -2.226562 5.457031 -1.90625 6.25 -1.90625 C 7.289062 -1.90625 8.222656 -2.457031 9.046875 -3.5625 C 9.867188 -4.664062 10.519531 -6.359375 11 -8.640625 C 10.039062 -9.378906 9.5625 -10.382812 9.5625 -11.65625 Z M 9.5625 -11.65625 "/></g></g></g><g fill="#708090" fill-opacity="1"><g transform="translate(174.659412, 196.161846)"><g><path d="M 5.828125 -14.578125 C 7.472656 -17.546875 9.515625 -19.03125 11.953125 -19.03125 C 13.734375 -19.03125 15.09375 -18.445312 16.03125 -17.28125 C 16.96875 -16.113281 17.4375 -14.539062 17.4375 -12.5625 C 17.4375 -12.007812 17.410156 -11.460938 17.359375 -10.921875 C 17.304688 -10.390625 17.234375 -9.875 17.140625 -9.375 C 17.867188 -9.445312 18.523438 -9.640625 19.109375 -9.953125 C 19.691406 -10.273438 20.1875 -10.617188 20.59375 -10.984375 C 21 -11.347656 21.3125 -11.664062 21.53125 -11.9375 C 21.75 -12.207031 21.859375 -12.34375 21.859375 -12.34375 C 22.390625 -12.34375 22.617188 -12.023438 22.546875 -11.390625 C 22.460938 -10.953125 22.15625 -10.453125 21.625 -9.890625 C 21.09375 -9.335938 20.398438 -8.84375 19.546875 -8.40625 C 18.703125 -7.976562 17.757812 -7.710938 16.71875 -7.609375 C 16.238281 -6.035156 15.546875 -4.675781 14.640625 -3.53125 C 13.742188 -2.394531 12.726562 -1.519531 11.59375 -0.90625 C 10.46875 -0.300781 9.28125 0 8.03125 0 C 7.113281 0 6.28125 -0.171875 5.53125 -0.515625 C 4.789062 -0.859375 4.15625 -1.304688 3.625 -1.859375 L 1.59375 9.703125 C 1.394531 10.898438 1.335938 11.742188 1.421875 12.234375 C 1.515625 12.734375 1.5625 12.984375 1.5625 12.984375 C 1.5625 12.984375 1.40625 13.039062 1.09375 13.15625 C 0.789062 13.269531 0.285156 13.328125 -0.421875 13.328125 C -1.890625 13.328125 -2.78125 13.023438 -3.09375 12.421875 C -3.414062 11.828125 -3.460938 10.875 -3.234375 9.5625 L 1.109375 -15.421875 C 1.304688 -16.617188 1.359375 -17.460938 1.265625 -17.953125 C 1.179688 -18.453125 1.140625 -18.703125 1.140625 -18.703125 C 1.140625 -18.703125 1.289062 -18.753906 1.59375 -18.859375 C 1.90625 -18.972656 2.414062 -19.03125 3.125 -19.03125 C 4.59375 -19.03125 5.484375 -18.738281 5.796875 -18.15625 C 6.117188 -17.570312 6.164062 -16.609375 5.9375 -15.265625 Z M 10.578125 -11.65625 C 10.578125 -12.289062 10.742188 -12.847656 11.078125 -13.328125 C 11.410156 -13.804688 11.878906 -14.109375 12.484375 -14.234375 C 12.253906 -15.484375 11.632812 -16.109375 10.625 -16.109375 C 9.53125 -16.109375 8.347656 -15.101562 7.078125 -13.09375 C 6.546875 -12.226562 6.03125 -11.207031 5.53125 -10.03125 C 5.039062 -8.851562 4.617188 -7.398438 4.265625 -5.671875 L 4 -4.234375 C 4.25 -3.828125 4.601562 -3.453125 5.0625 -3.109375 C 5.519531 -2.765625 6.128906 -2.59375 6.890625 -2.59375 C 7.929688 -2.59375 8.921875 -3.148438 9.859375 -4.265625 C 10.796875 -5.378906 11.507812 -6.835938 12 -8.640625 C 11.050781 -9.378906 10.578125 -10.382812 10.578125 -11.65625 Z M 10.578125 -11.65625 "/></g></g></g><g fill="#708090" fill-opacity="1"><g transform="translate(195.904798, 196.161846)"><g><path d="M 2.125 -24.75 C 2.125 -25.539062 2.390625 -26.195312 2.921875 -26.71875 C 3.460938 -27.238281 4.085938 -27.5 4.796875 -27.5 C 5.535156 -27.5 6.113281 -27.269531 6.53125 -26.8125 C 6.945312 -26.351562 7.15625 -25.78125 7.15625 -25.09375 C 7.15625 -24.4375 6.90625 -23.832031 6.40625 -23.28125 C 5.914062 -22.738281 5.253906 -22.46875 4.421875 -22.46875 C 3.734375 -22.46875 3.175781 -22.679688 2.75 -23.109375 C 2.332031 -23.546875 2.125 -24.09375 2.125 -24.75 Z M 0.796875 -15.421875 C 1.003906 -16.640625 1.0625 -17.488281 0.96875 -17.96875 C 0.882812 -18.457031 0.84375 -18.703125 0.84375 -18.703125 C 0.84375 -18.703125 0.992188 -18.753906 1.296875 -18.859375 C 1.597656 -18.972656 2.101562 -19.03125 2.8125 -19.03125 C 4.289062 -19.03125 5.1875 -18.738281 5.5 -18.15625 C 5.820312 -17.570312 5.867188 -16.609375 5.640625 -15.265625 L 4.15625 -6.65625 C 3.976562 -5.519531 4.035156 -4.675781 4.328125 -4.125 C 4.617188 -3.582031 5.101562 -3.3125 5.78125 -3.3125 C 6.445312 -3.3125 7.160156 -3.609375 7.921875 -4.203125 C 8.679688 -4.804688 9.300781 -5.613281 9.78125 -6.625 C 10.039062 -6.625 10.238281 -6.546875 10.375 -6.390625 C 10.507812 -6.242188 10.554688 -5.992188 10.515625 -5.640625 C 10.410156 -5.128906 10.171875 -4.554688 9.796875 -3.921875 C 9.429688 -3.285156 8.941406 -2.671875 8.328125 -2.078125 C 7.722656 -1.484375 7.023438 -0.988281 6.234375 -0.59375 C 5.453125 -0.195312 4.601562 0 3.6875 0 C 2.375 0 1.300781 -0.410156 0.46875 -1.234375 C -0.351562 -2.054688 -0.765625 -3.234375 -0.765625 -4.765625 C -0.765625 -5.140625 -0.738281 -5.644531 -0.6875 -6.28125 C -0.632812 -6.914062 -0.546875 -7.613281 -0.421875 -8.375 Z M 0.796875 -15.421875 "/></g></g></g><g fill="#708090" fill-opacity="1"><g transform="translate(206.070599, 196.161846)"><g><path d="M 7.46875 0 C 5.789062 0 4.300781 -0.328125 3 -0.984375 C 1.707031 -1.648438 0.695312 -2.59375 -0.03125 -3.8125 C -0.769531 -5.03125 -1.140625 -6.453125 -1.140625 -8.078125 C -1.140625 -9.722656 -0.859375 -11.21875 -0.296875 -12.5625 C 0.253906 -13.90625 1.003906 -15.0625 1.953125 -16.03125 C 2.910156 -17 4 -17.738281 5.21875 -18.25 C 6.4375 -18.769531 7.691406 -19.03125 8.984375 -19.03125 C 10.554688 -19.03125 11.84375 -18.625 12.84375 -17.8125 C 13.851562 -17.007812 14.359375 -15.984375 14.359375 -14.734375 C 14.359375 -13.617188 14.054688 -12.679688 13.453125 -11.921875 C 12.859375 -11.160156 12.066406 -10.78125 11.078125 -10.78125 C 10.390625 -10.78125 9.910156 -10.929688 9.640625 -11.234375 C 9.378906 -11.535156 9.25 -11.6875 9.25 -11.6875 C 9.25 -11.6875 9.367188 -11.816406 9.609375 -12.078125 C 9.847656 -12.347656 10.082031 -12.753906 10.3125 -13.296875 C 10.539062 -13.847656 10.65625 -14.546875 10.65625 -15.390625 C 10.65625 -15.921875 10.488281 -16.34375 10.15625 -16.65625 C 9.832031 -16.976562 9.414062 -17.140625 8.90625 -17.140625 C 8.125 -17.140625 7.335938 -16.796875 6.546875 -16.109375 C 5.765625 -15.421875 5.113281 -14.453125 4.59375 -13.203125 C 4.070312 -11.960938 3.8125 -10.503906 3.8125 -8.828125 C 3.8125 -7.054688 4.296875 -5.644531 5.265625 -4.59375 C 6.242188 -3.539062 7.625 -3.015625 9.40625 -3.015625 C 10.695312 -3.015625 11.816406 -3.203125 12.765625 -3.578125 C 13.722656 -3.960938 14.53125 -4.429688 15.1875 -4.984375 C 15.851562 -5.546875 16.347656 -6.09375 16.671875 -6.625 C 17.234375 -6.625 17.4375 -6.296875 17.28125 -5.640625 C 17.1875 -5.234375 16.894531 -4.710938 16.40625 -4.078125 C 15.925781 -3.441406 15.265625 -2.8125 14.421875 -2.1875 C 13.585938 -1.5625 12.585938 -1.039062 11.421875 -0.625 C 10.253906 -0.207031 8.9375 0 7.46875 0 Z M 7.46875 0 "/></g></g></g><g fill="#708090" fill-opacity="1"><g transform="translate(223.242043, 196.161846)"><g><path d="M 9.328125 -10.625 C 10.722656 -9.914062 11.695312 -9.15625 12.25 -8.34375 C 12.8125 -7.53125 13.09375 -6.613281 13.09375 -5.59375 C 13.09375 -4.601562 12.800781 -3.679688 12.21875 -2.828125 C 11.632812 -1.984375 10.753906 -1.300781 9.578125 -0.78125 C 8.398438 -0.257812 6.882812 0 5.03125 0 C 3.40625 0 2.082031 -0.234375 1.0625 -0.703125 C 0.0507812 -1.171875 -0.691406 -1.753906 -1.171875 -2.453125 C -1.660156 -3.148438 -1.90625 -3.832031 -1.90625 -4.5 C -1.90625 -5.226562 -1.648438 -5.789062 -1.140625 -6.1875 C -0.628906 -6.582031 -0.046875 -6.78125 0.609375 -6.78125 C 1.265625 -6.78125 1.734375 -6.691406 2.015625 -6.515625 C 2.296875 -6.335938 2.4375 -6.25 2.4375 -6.25 C 2.4375 -6.25 2.40625 -6.148438 2.34375 -5.953125 C 2.28125 -5.765625 2.25 -5.492188 2.25 -5.140625 C 2.25 -4.203125 2.5 -3.429688 3 -2.828125 C 3.507812 -2.234375 4.3125 -1.925781 5.40625 -1.90625 C 6.5 -1.90625 7.304688 -2.144531 7.828125 -2.625 C 8.347656 -3.101562 8.609375 -3.660156 8.609375 -4.296875 C 8.609375 -4.753906 8.46875 -5.179688 8.1875 -5.578125 C 7.90625 -5.972656 7.421875 -6.347656 6.734375 -6.703125 L 3.015625 -8.6875 C 2.097656 -9.1875 1.316406 -9.785156 0.671875 -10.484375 C 0.0234375 -11.179688 -0.296875 -12.164062 -0.296875 -13.4375 C -0.296875 -14.988281 0.375 -16.304688 1.71875 -17.390625 C 3.0625 -18.484375 5.078125 -19.03125 7.765625 -19.03125 C 9.335938 -19.03125 10.640625 -18.796875 11.671875 -18.328125 C 12.703125 -17.859375 13.460938 -17.273438 13.953125 -16.578125 C 14.453125 -15.878906 14.703125 -15.203125 14.703125 -14.546875 C 14.703125 -13.835938 14.445312 -13.28125 13.9375 -12.875 C 13.425781 -12.46875 12.84375 -12.265625 12.1875 -12.265625 C 11.550781 -12.265625 11.085938 -12.351562 10.796875 -12.53125 C 10.503906 -12.707031 10.359375 -12.796875 10.359375 -12.796875 C 10.359375 -12.796875 10.390625 -12.894531 10.453125 -13.09375 C 10.515625 -13.300781 10.546875 -13.570312 10.546875 -13.90625 C 10.546875 -14.789062 10.269531 -15.550781 9.71875 -16.1875 C 9.175781 -16.820312 8.375 -17.140625 7.3125 -17.140625 C 6.269531 -17.140625 5.488281 -16.898438 4.96875 -16.421875 C 4.445312 -15.953125 4.1875 -15.390625 4.1875 -14.734375 C 4.1875 -14.179688 4.335938 -13.722656 4.640625 -13.359375 C 4.953125 -13.003906 5.421875 -12.664062 6.046875 -12.34375 Z M 9.328125 -10.625 "/></g></g></g><path stroke-linecap="round" transform="matrix(0.75, 0, 0, 0.75, 191.821895, 140.218937)" fill="none" stroke-linejoin="miter" d="M 0.49789 0.49975 L 29.497892 0.49975 " stroke="#ffffff" stroke-width="1" stroke-opacity="1" stroke-miterlimit="4"/><path stroke-linecap="round" transform="matrix(0.75, 0, 0, 0.75, 194.003327, 142.615714)" fill="none" stroke-linejoin="miter" d="M 0.500772 0.501965 L 29.500774 0.501965 " stroke="#708090" stroke-width="1" stroke-opacity="1" stroke-miterlimit="4"/><path stroke-linecap="round" transform="matrix(0.75, 0.00000000000000118, -0.00000000000000118, 0.75, 196.012902, 145.018994)" fill="none" stroke-linejoin="miter" d="M 0.498422 0.500716 L 17.560923 0.500716 " stroke="#ffffff" stroke-width="1" stroke-opacity="1" stroke-miterlimit="4"/><path stroke-linecap="round" transform="matrix(0.75, 0, 0, 0.75, 186.886324, 145.018994)" fill="none" stroke-linejoin="miter" d="M 0.500526 0.500716 L 8.099485 0.500716 " stroke="#ffffff" stroke-width="1" stroke-opacity="1" stroke-miterlimit="4"/><path stroke-linecap="round" transform="matrix(0.75, 0.00000000000000118, -0.00000000000000118, 0.75, 198.073878, 146.893994)" fill="none" stroke-linejoin="miter" d="M 0.500455 0.500716 L 17.562956 0.500716 " stroke="#708090" stroke-width="1" stroke-opacity="1" stroke-miterlimit="4"/><path stroke-linecap="round" transform="matrix(0.75, 0.000000000000001184, -0.000000000000001184, 0.75, 216.503325, 152.218936)" fill="none" stroke-linejoin="miter" d="M 0.500774 0.499751 L 17.500776 0.499751 " stroke="#708090" stroke-width="1" stroke-opacity="1" stroke-miterlimit="4"/><path stroke-linecap="round" transform="matrix(0.75, 0, 0, 0.75, 191.300558, 150.193877)" fill="none" stroke-linejoin="miter" d="M 0.500298 0.501915 L 23.84405 0.501915 " stroke="#ffffff" stroke-width="1" stroke-opacity="1" stroke-miterlimit="4"/><path stroke-linecap="round" transform="matrix(0.75, 0, 0, 0.75, 194.944328, 152.593936)" fill="none" stroke-linejoin="miter" d="M 0.501312 0.499752 L 23.845064 0.499752 " stroke="#708090" stroke-width="1" stroke-opacity="1" stroke-miterlimit="4"/><path stroke-linecap="round" transform="matrix(0.75, 0.000000000000001184, -0.000000000000001184, 0.75, 214.321894, 149.818877)" fill="none" stroke-linejoin="miter" d="M 0.497892 0.501915 L 17.497893 0.501915 " stroke="#ffffff" stroke-width="1" stroke-opacity="1" stroke-miterlimit="4"/><path stroke-linecap="round" transform="matrix(0.75, 0, 0, 0.75, 187.553327, 147.268994)" fill="none" stroke-linejoin="miter" d="M 0.501814 0.500716 L 8.100772 0.500716 " stroke="#708090" stroke-width="1" stroke-opacity="1" stroke-miterlimit="4"/><path stroke-linecap="round" transform="matrix(0.75, 0.000000000000003325, -0.000000000000003325, 0.75, 213.203326, 144.643995)" fill="none" stroke-linejoin="miter" d="M 0.499732 0.500716 L 5.911191 0.500716 " stroke="#ffffff" stroke-width="1" stroke-opacity="1" stroke-miterlimit="4"/><path stroke-linecap="round" transform="matrix(0.75, 0.000000000000003325, -0.000000000000003325, 0.75, 214.321894, 146.893994)" fill="none" stroke-linejoin="miter" d="M 0.497892 0.500716 L 5.909351 0.500716 " stroke="#708090" stroke-width="1" stroke-opacity="1" stroke-miterlimit="4"/><path stroke-linecap="round" transform="matrix(0.75, 0.000000000000002009, -0.000000000000002009, 0.75, 144.344805, 147.643994)" fill="none" stroke-linejoin="miter" d="M 0.498593 0.500716 L 10.107968 0.500716 " stroke="#ffffff" stroke-width="1" stroke-opacity="1" stroke-miterlimit="4"/><path stroke-linecap="round" transform="matrix(0.75, 0.00000000000000177, -0.00000000000000177, 0.75, 145.35294, 150.193877)" fill="none" stroke-linejoin="miter" d="M 0.498164 0.501915 L 11.545039 0.501915 " stroke="#708090" stroke-width="1" stroke-opacity="1" stroke-miterlimit="4"/><path stroke-linecap="round" transform="matrix(0.75, 0.000000000000003325, -0.000000000000003325, 0.75, 160.621386, 155.154482)" fill="none" stroke-linejoin="miter" d="M 0.49961 0.502358 L 5.911069 0.502358 " stroke="#ffffff" stroke-width="1" stroke-opacity="1" stroke-miterlimit="4"/><path stroke-linecap="round" transform="matrix(0.75, 0.000000000000003325, -0.000000000000003325, 0.75, 162.461977, 157.554482)" fill="none" stroke-linejoin="miter" d="M 0.498614 0.500274 L 5.910073 0.500274 " stroke="#708090" stroke-width="1" stroke-opacity="1" stroke-miterlimit="4"/><path stroke-linecap="round" transform="matrix(0.75, 0.000000000000001184, -0.000000000000001184, 0.75, 158.679268, 147.643994)" fill="none" stroke-linejoin="miter" d="M 0.50056 0.500716 L 17.500561 0.500716 " stroke="#ffffff" stroke-width="1" stroke-opacity="1" stroke-miterlimit="4"/><path stroke-linecap="round" transform="matrix(0.75, 0.000000000000001184, -0.000000000000001184, 0.75, 160.519856, 150.568877)" fill="none" stroke-linejoin="miter" d="M 0.499567 0.501915 L 17.499568 0.501915 " stroke="#708090" stroke-width="1" stroke-opacity="1" stroke-miterlimit="4"/><path stroke-linecap="round" transform="matrix(0.75, 0.000000000000001527, -0.000000000000001527, 0.75, 143.91767, 154.404482)" fill="none" stroke-linejoin="miter" d="M 0.500398 0.502358 L 13.458732 0.502358 " stroke="#ffffff" stroke-width="1" stroke-opacity="1" stroke-miterlimit="4"/><path stroke-linecap="round" transform="matrix(0.75, 0.000000000000001527, -0.000000000000001527, 0.75, 145.35294, 156.804482)" fill="none" stroke-linejoin="miter" d="M 0.498164 0.500274 L 13.461706 0.500274 " stroke="#708090" stroke-width="1" stroke-opacity="1" stroke-miterlimit="4"/><g fill="#ffffff" fill-opacity="1"><g transform="translate(144.889496, 196.08227)"><g><path d="M 1.578125 -19.1875 L 1.953125 -21.265625 C 2.179688 -22.460938 2.242188 -23.3125 2.140625 -23.8125 C 2.046875 -24.3125 2 -24.5625 2 -24.5625 C 2 -24.5625 2.148438 -24.617188 2.453125 -24.734375 C 2.765625 -24.847656 3.273438 -24.90625 3.984375 -24.90625 C 5.472656 -24.90625 6.382812 -24.609375 6.71875 -24.015625 C 7.050781 -23.429688 7.085938 -22.460938 6.828125 -21.109375 L 6.484375 -19.1875 L 10.28125 -19.1875 C 10.28125 -19.1875 10.320312 -19.113281 10.40625 -18.96875 C 10.5 -18.832031 10.546875 -18.632812 10.546875 -18.375 C 10.546875 -18.039062 10.4375 -17.769531 10.21875 -17.5625 C 10.007812 -17.363281 9.6875 -17.265625 9.25 -17.265625 L 6.140625 -17.265625 L 4.296875 -6.71875 C 4.117188 -5.664062 4.210938 -4.835938 4.578125 -4.234375 C 4.953125 -3.640625 5.585938 -3.34375 6.484375 -3.34375 C 7.585938 -3.34375 8.523438 -3.695312 9.296875 -4.40625 C 10.078125 -5.125 10.675781 -5.878906 11.09375 -6.671875 C 11.34375 -6.671875 11.535156 -6.585938 11.671875 -6.421875 C 11.816406 -6.253906 11.851562 -6.003906 11.78125 -5.671875 C 11.601562 -4.910156 11.160156 -4.085938 10.453125 -3.203125 C 9.753906 -2.316406 8.882812 -1.5625 7.84375 -0.9375 C 6.8125 -0.3125 5.679688 0 4.453125 0 C 3.046875 0 1.847656 -0.457031 0.859375 -1.375 C -0.117188 -2.300781 -0.609375 -3.53125 -0.609375 -5.0625 C -0.609375 -5.5 -0.582031 -6.050781 -0.53125 -6.71875 C -0.476562 -7.382812 -0.363281 -8.203125 -0.1875 -9.171875 L 1.234375 -17.265625 L -1.265625 -17.265625 C -1.265625 -17.265625 -1.304688 -17.332031 -1.390625 -17.46875 C -1.484375 -17.613281 -1.53125 -17.816406 -1.53125 -18.078125 C -1.53125 -18.410156 -1.414062 -18.675781 -1.1875 -18.875 C -0.957031 -19.082031 -0.640625 -19.1875 -0.234375 -19.1875 Z M 1.578125 -19.1875 "/></g></g></g><g fill="#ffffff" fill-opacity="1"><g transform="translate(156.324072, 196.08227)"><g><path d="M 9.484375 -19.1875 C 11.734375 -19.1875 13.472656 -18.515625 14.703125 -17.171875 C 15.929688 -15.828125 16.546875 -14.054688 16.546875 -11.859375 C 16.546875 -11.453125 16.523438 -11.039062 16.484375 -10.625 C 16.441406 -10.21875 16.394531 -9.820312 16.34375 -9.4375 C 17.320312 -9.59375 18.15625 -9.910156 18.84375 -10.390625 C 19.53125 -10.878906 20.054688 -11.34375 20.421875 -11.78125 C 20.796875 -12.21875 20.984375 -12.4375 20.984375 -12.4375 C 21.523438 -12.4375 21.757812 -12.113281 21.6875 -11.46875 C 21.601562 -11.039062 21.300781 -10.550781 20.78125 -10 C 20.257812 -9.445312 19.582031 -8.953125 18.75 -8.515625 C 17.914062 -8.078125 16.988281 -7.796875 15.96875 -7.671875 C 15.320312 -5.398438 14.132812 -3.550781 12.40625 -2.125 C 10.6875 -0.707031 8.519531 0 5.90625 0 C 3.882812 0 2.203125 -0.625 0.859375 -1.875 C -0.484375 -3.132812 -1.15625 -4.953125 -1.15625 -7.328125 C -1.15625 -9.660156 -0.726562 -11.710938 0.125 -13.484375 C 0.988281 -15.265625 2.21875 -16.660156 3.8125 -17.671875 C 5.414062 -18.679688 7.304688 -19.1875 9.484375 -19.1875 Z M 9.625 -11.75 C 9.625 -12.40625 9.789062 -12.96875 10.125 -13.4375 C 10.457031 -13.914062 10.945312 -14.222656 11.59375 -14.359375 C 11.382812 -16.328125 10.550781 -17.3125 9.09375 -17.3125 C 8.144531 -17.3125 7.207031 -16.75 6.28125 -15.625 C 5.363281 -14.5 4.640625 -12.5 4.109375 -9.625 C 4.003906 -9.144531 3.921875 -8.488281 3.859375 -7.65625 C 3.796875 -6.820312 3.765625 -6.160156 3.765625 -5.671875 C 3.765625 -4.472656 3.988281 -3.546875 4.4375 -2.890625 C 4.882812 -2.242188 5.503906 -1.921875 6.296875 -1.921875 C 7.335938 -1.921875 8.273438 -2.472656 9.109375 -3.578125 C 9.941406 -4.691406 10.601562 -6.40625 11.09375 -8.71875 C 10.113281 -9.457031 9.625 -10.46875 9.625 -11.75 Z M 9.625 -11.75 "/></g></g></g><g fill="#ffffff" fill-opacity="1"><g transform="translate(176.699102, 196.08227)"><g><path d="M 5.875 -14.703125 C 7.53125 -17.691406 9.585938 -19.1875 12.046875 -19.1875 C 13.835938 -19.1875 15.207031 -18.597656 16.15625 -17.421875 C 17.101562 -16.242188 17.578125 -14.65625 17.578125 -12.65625 C 17.578125 -12.09375 17.550781 -11.539062 17.5 -11 C 17.445312 -10.46875 17.367188 -9.945312 17.265625 -9.4375 C 18.003906 -9.519531 18.664062 -9.71875 19.25 -10.03125 C 19.84375 -10.351562 20.34375 -10.695312 20.75 -11.0625 C 21.164062 -11.4375 21.484375 -11.757812 21.703125 -12.03125 C 21.921875 -12.300781 22.03125 -12.4375 22.03125 -12.4375 C 22.5625 -12.4375 22.789062 -12.113281 22.71875 -11.46875 C 22.644531 -11.039062 22.335938 -10.546875 21.796875 -9.984375 C 21.253906 -9.421875 20.554688 -8.921875 19.703125 -8.484375 C 18.847656 -8.046875 17.894531 -7.773438 16.84375 -7.671875 C 16.363281 -6.085938 15.664062 -4.71875 14.75 -3.5625 C 13.84375 -2.414062 12.820312 -1.535156 11.6875 -0.921875 C 10.550781 -0.304688 9.351562 0 8.09375 0 C 7.175781 0 6.335938 -0.171875 5.578125 -0.515625 C 4.828125 -0.859375 4.179688 -1.3125 3.640625 -1.875 L 1.609375 9.78125 C 1.410156 10.988281 1.351562 11.835938 1.4375 12.328125 C 1.53125 12.828125 1.578125 13.078125 1.578125 13.078125 C 1.578125 13.078125 1.421875 13.132812 1.109375 13.25 C 0.804688 13.375 0.296875 13.4375 -0.421875 13.4375 C -1.898438 13.4375 -2.800781 13.132812 -3.125 12.53125 C -3.445312 11.925781 -3.492188 10.957031 -3.265625 9.625 L 1.109375 -15.546875 C 1.316406 -16.742188 1.375 -17.59375 1.28125 -18.09375 C 1.195312 -18.59375 1.15625 -18.84375 1.15625 -18.84375 C 1.15625 -18.84375 1.304688 -18.898438 1.609375 -19.015625 C 1.921875 -19.128906 2.429688 -19.1875 3.140625 -19.1875 C 4.628906 -19.1875 5.53125 -18.890625 5.84375 -18.296875 C 6.164062 -17.710938 6.210938 -16.742188 5.984375 -15.390625 Z M 10.671875 -11.75 C 10.671875 -12.382812 10.835938 -12.941406 11.171875 -13.421875 C 11.503906 -13.910156 11.976562 -14.222656 12.59375 -14.359375 C 12.351562 -15.609375 11.722656 -16.234375 10.703125 -16.234375 C 9.609375 -16.234375 8.421875 -15.222656 7.140625 -13.203125 C 6.597656 -12.328125 6.078125 -11.296875 5.578125 -10.109375 C 5.078125 -8.921875 4.648438 -7.457031 4.296875 -5.71875 L 4.03125 -4.265625 C 4.28125 -3.847656 4.632812 -3.46875 5.09375 -3.125 C 5.5625 -2.78125 6.179688 -2.609375 6.953125 -2.609375 C 7.992188 -2.609375 8.988281 -3.171875 9.9375 -4.296875 C 10.882812 -5.421875 11.601562 -6.894531 12.09375 -8.71875 C 11.144531 -9.457031 10.671875 -10.46875 10.671875 -11.75 Z M 10.671875 -11.75 "/></g></g></g><g fill="#ffffff" fill-opacity="1"><g transform="translate(198.110153, 196.08227)"><g><path d="M 2.15625 -24.9375 C 2.15625 -25.738281 2.421875 -26.398438 2.953125 -26.921875 C 3.492188 -27.441406 4.117188 -27.703125 4.828125 -27.703125 C 5.578125 -27.703125 6.160156 -27.472656 6.578125 -27.015625 C 7.003906 -26.554688 7.21875 -25.976562 7.21875 -25.28125 C 7.21875 -24.625 6.96875 -24.019531 6.46875 -23.46875 C 5.96875 -22.914062 5.296875 -22.640625 4.453125 -22.640625 C 3.765625 -22.640625 3.207031 -22.859375 2.78125 -23.296875 C 2.363281 -23.734375 2.15625 -24.28125 2.15625 -24.9375 Z M 0.8125 -15.546875 C 1.007812 -16.773438 1.0625 -17.628906 0.96875 -18.109375 C 0.882812 -18.597656 0.84375 -18.84375 0.84375 -18.84375 C 0.84375 -18.84375 0.992188 -18.898438 1.296875 -19.015625 C 1.609375 -19.128906 2.125 -19.1875 2.84375 -19.1875 C 4.320312 -19.1875 5.222656 -18.890625 5.546875 -18.296875 C 5.867188 -17.710938 5.910156 -16.742188 5.671875 -15.390625 L 4.1875 -6.71875 C 4.007812 -5.5625 4.066406 -4.707031 4.359375 -4.15625 C 4.648438 -3.613281 5.140625 -3.34375 5.828125 -3.34375 C 6.492188 -3.34375 7.210938 -3.640625 7.984375 -4.234375 C 8.753906 -4.835938 9.378906 -5.648438 9.859375 -6.671875 C 10.117188 -6.671875 10.316406 -6.59375 10.453125 -6.4375 C 10.597656 -6.289062 10.644531 -6.035156 10.59375 -5.671875 C 10.488281 -5.160156 10.25 -4.585938 9.875 -3.953125 C 9.507812 -3.316406 9.019531 -2.695312 8.40625 -2.09375 C 7.789062 -1.488281 7.085938 -0.988281 6.296875 -0.59375 C 5.503906 -0.195312 4.644531 0 3.71875 0 C 2.394531 0 1.316406 -0.414062 0.484375 -1.25 C -0.347656 -2.082031 -0.765625 -3.265625 -0.765625 -4.796875 C -0.765625 -5.179688 -0.738281 -5.691406 -0.6875 -6.328125 C -0.632812 -6.972656 -0.546875 -7.675781 -0.421875 -8.4375 Z M 0.8125 -15.546875 "/></g></g></g><g fill="#ffffff" fill-opacity="1"><g transform="translate(208.355223, 196.08227)"><g><path d="M 7.515625 0 C 5.828125 0 4.332031 -0.332031 3.03125 -1 C 1.726562 -1.664062 0.707031 -2.609375 -0.03125 -3.828125 C -0.78125 -5.054688 -1.15625 -6.492188 -1.15625 -8.140625 C -1.15625 -9.796875 -0.875 -11.300781 -0.3125 -12.65625 C 0.25 -14.019531 1.007812 -15.1875 1.96875 -16.15625 C 2.9375 -17.125 4.03125 -17.867188 5.25 -18.390625 C 6.476562 -18.921875 7.75 -19.1875 9.0625 -19.1875 C 10.644531 -19.1875 11.941406 -18.773438 12.953125 -17.953125 C 13.960938 -17.140625 14.46875 -16.101562 14.46875 -14.84375 C 14.46875 -13.71875 14.164062 -12.769531 13.5625 -12 C 12.957031 -11.238281 12.160156 -10.859375 11.171875 -10.859375 C 10.472656 -10.859375 9.988281 -11.007812 9.71875 -11.3125 C 9.457031 -11.625 9.328125 -11.78125 9.328125 -11.78125 C 9.328125 -11.78125 9.445312 -11.914062 9.6875 -12.1875 C 9.925781 -12.457031 10.160156 -12.863281 10.390625 -13.40625 C 10.628906 -13.957031 10.75 -14.65625 10.75 -15.5 C 10.75 -16.039062 10.582031 -16.46875 10.25 -16.78125 C 9.914062 -17.101562 9.492188 -17.265625 8.984375 -17.265625 C 8.191406 -17.265625 7.394531 -16.921875 6.59375 -16.234375 C 5.800781 -15.546875 5.144531 -14.570312 4.625 -13.3125 C 4.101562 -12.0625 3.84375 -10.59375 3.84375 -8.90625 C 3.84375 -7.113281 4.332031 -5.6875 5.3125 -4.625 C 6.300781 -3.5625 7.691406 -3.03125 9.484375 -3.03125 C 10.785156 -3.03125 11.914062 -3.222656 12.875 -3.609375 C 13.832031 -3.992188 14.644531 -4.46875 15.3125 -5.03125 C 15.976562 -5.59375 16.476562 -6.140625 16.8125 -6.671875 C 17.375 -6.671875 17.578125 -6.335938 17.421875 -5.671875 C 17.316406 -5.265625 17.019531 -4.738281 16.53125 -4.09375 C 16.050781 -3.457031 15.390625 -2.828125 14.546875 -2.203125 C 13.703125 -1.578125 12.691406 -1.050781 11.515625 -0.625 C 10.335938 -0.207031 9.003906 0 7.515625 0 Z M 7.515625 0 "/></g></g></g><g fill="#ffffff" fill-opacity="1"><g transform="translate(225.660566, 196.08227)"><g><path d="M 9.40625 -10.703125 C 10.8125 -9.984375 11.796875 -9.210938 12.359375 -8.390625 C 12.921875 -7.578125 13.203125 -6.660156 13.203125 -5.640625 C 13.203125 -4.640625 12.90625 -3.710938 12.3125 -2.859375 C 11.726562 -2.003906 10.835938 -1.3125 9.640625 -0.78125 C 8.453125 -0.257812 6.925781 0 5.0625 0 C 3.425781 0 2.097656 -0.234375 1.078125 -0.703125 C 0.0546875 -1.179688 -0.695312 -1.769531 -1.1875 -2.46875 C -1.675781 -3.175781 -1.921875 -3.863281 -1.921875 -4.53125 C -1.921875 -5.269531 -1.664062 -5.835938 -1.15625 -6.234375 C -0.644531 -6.628906 -0.0546875 -6.828125 0.609375 -6.828125 C 1.273438 -6.828125 1.75 -6.738281 2.03125 -6.5625 C 2.3125 -6.382812 2.453125 -6.296875 2.453125 -6.296875 C 2.453125 -6.296875 2.421875 -6.195312 2.359375 -6 C 2.296875 -5.8125 2.265625 -5.539062 2.265625 -5.1875 C 2.265625 -4.238281 2.519531 -3.460938 3.03125 -2.859375 C 3.539062 -2.253906 4.347656 -1.941406 5.453125 -1.921875 C 6.546875 -1.921875 7.351562 -2.160156 7.875 -2.640625 C 8.40625 -3.128906 8.671875 -3.695312 8.671875 -4.34375 C 8.671875 -4.800781 8.53125 -5.226562 8.25 -5.625 C 7.96875 -6.019531 7.484375 -6.394531 6.796875 -6.75 L 3.03125 -8.75 C 2.113281 -9.257812 1.328125 -9.863281 0.671875 -10.5625 C 0.015625 -11.269531 -0.3125 -12.265625 -0.3125 -13.546875 C -0.3125 -15.109375 0.363281 -16.4375 1.71875 -17.53125 C 3.082031 -18.632812 5.117188 -19.1875 7.828125 -19.1875 C 9.410156 -19.1875 10.71875 -18.945312 11.75 -18.46875 C 12.789062 -18 13.5625 -17.410156 14.0625 -16.703125 C 14.5625 -16.003906 14.8125 -15.320312 14.8125 -14.65625 C 14.8125 -13.9375 14.554688 -13.375 14.046875 -12.96875 C 13.535156 -12.5625 12.945312 -12.359375 12.28125 -12.359375 C 11.644531 -12.359375 11.175781 -12.445312 10.875 -12.625 C 10.582031 -12.800781 10.4375 -12.890625 10.4375 -12.890625 C 10.4375 -12.890625 10.46875 -12.992188 10.53125 -13.203125 C 10.59375 -13.410156 10.625 -13.675781 10.625 -14 C 10.625 -14.894531 10.347656 -15.660156 9.796875 -16.296875 C 9.253906 -16.941406 8.445312 -17.265625 7.375 -17.265625 C 6.320312 -17.265625 5.53125 -17.023438 5 -16.546875 C 4.476562 -16.078125 4.21875 -15.507812 4.21875 -14.84375 C 4.21875 -14.28125 4.367188 -13.820312 4.671875 -13.46875 C 4.984375 -13.113281 5.460938 -12.769531 6.109375 -12.4375 Z M 9.40625 -10.703125 "/></g></g></g><g clip-path="url(#80fad7f3f1)"><g clip-path="url(#e1d792d87c)"><path stroke-linecap="butt" transform="matrix(0.75, 0, 0, 0.75, 121.72077, 100.594445)" fill="none" stroke-linejoin="miter" d="M 90.794182 -0.000927192 L 181.591057 51.967823 L 181.591057 159.926156 L 90.794182 211.889698 L 0.00251486 159.926156 L 0.00251486 51.967823 Z M 90.794182 -0.000927192 " stroke="#708090" stroke-width="5" stroke-opacity="1" stroke-miterlimit="4"/></g></g><path stroke-linecap="round" transform="matrix(0.75, 0.000000000000003325, -0.000000000000003325, 0.75, 169.775326, 154.779482)" fill="none" stroke-linejoin="miter" d="M 0.497482 0.502358 L 5.908941 0.502358 " stroke="#ffffff" stroke-width="1" stroke-opacity="1" stroke-miterlimit="4"/><path stroke-linecap="round" transform="matrix(0.75, 0.000000000000003325, -0.000000000000003325, 0.75, 171.35822, 157.179482)" fill="none" stroke-linejoin="miter" d="M 0.501541 0.500274 L 5.912999 0.500274 " stroke="#708090" stroke-width="1" stroke-opacity="1" stroke-miterlimit="4"/><path stroke-linecap="round" transform="matrix(0.75, 0, 0, 0.75, 157.294857, 163.659306)" fill="none" stroke-linejoin="miter" d="M 0.497483 0.501134 L 8.10165 0.501134 " stroke="#708090" stroke-width="1" stroke-opacity="1" stroke-miterlimit="4"/><path stroke-linecap="round" transform="matrix(0.75, 0, 0, 0.75, 156.011963, 160.843936)" fill="none" stroke-linejoin="miter" d="M 0.499674 0.499752 L 8.098633 0.499752 " stroke="#ffffff" stroke-width="1" stroke-opacity="1" stroke-miterlimit="4"/><path stroke-linecap="round" transform="matrix(0.75, 0.000000000000002368, -0.000000000000002368, 0.75, 205.62979, 208.680925)" fill="none" stroke-linejoin="miter" d="M 0.498821 0.49835 L 17.498823 0.49835 " stroke="#708090" stroke-width="1" stroke-opacity="1" stroke-miterlimit="4"/><path stroke-linecap="round" transform="matrix(0.75, 0, 0, 0.75, 204.870519, 206.368933)" fill="none" stroke-linejoin="miter" d="M 0.500766 0.497673 L 17.500767 0.497673 " stroke="#f8f8f2" stroke-width="1" stroke-opacity="1" stroke-miterlimit="4"/><path stroke-linecap="round" transform="matrix(0.75, 0, 0, 0.75, 199.179791, 215.500181)" fill="none" stroke-linejoin="miter" d="M 0.499863 0.499759 L 8.098821 0.499759 " stroke="#708090" stroke-width="1" stroke-opacity="1" stroke-miterlimit="4"/><path stroke-linecap="round" transform="matrix(0.75, 0, 0, 0.75, 198.420519, 211.88899)" fill="none" stroke-linejoin="miter" d="M 0.501807 0.50218 L 8.100766 0.50218 " stroke="#f8f8f2" stroke-width="1" stroke-opacity="1" stroke-miterlimit="4"/><path stroke-linecap="round" transform="matrix(0.75, 0, 0, 0.75, 210.000284, 215.125181)" fill="none" stroke-linejoin="miter" d="M 0.499622 0.499759 L 23.843374 0.499759 " stroke="#708090" stroke-width="1" stroke-opacity="1" stroke-miterlimit="4"/><path stroke-linecap="round" transform="matrix(0.75, 0, 0, 0.75, 207.37382, 212.26399)" fill="none" stroke-linejoin="miter" d="M 0.501574 0.50218 L 23.845325 0.50218 " stroke="#f8f8f2" stroke-width="1" stroke-opacity="1" stroke-miterlimit="4"/><path stroke-linecap="round" transform="matrix(0.75, 0, 0, 0.75, 210.799385, 222.429242)" fill="none" stroke-linejoin="miter" d="M 0.501862 0.500594 L 5.908112 0.500594 " stroke="#708090" stroke-width="1" stroke-opacity="1" stroke-miterlimit="4"/><path stroke-linecap="round" transform="matrix(0.75, 0, 0, 0.75, 209.216578, 218.510376)" fill="none" stroke-linejoin="miter" d="M 0.497688 0.50179 L 5.909146 0.50179 " stroke="#f8f8f2" stroke-width="1" stroke-opacity="1" stroke-miterlimit="4"/></svg>