<svg xmlns="http://www.w3.org/2000/svg" xmlns:xlink="http://www.w3.org/1999/xlink" width="454" zoomAndPan="magnify" viewBox="0 0 340.5 329.999987" height="440" preserveAspectRatio="xMidYMid meet" version="1.0"><defs><filter x="0%" y="0%" width="100%" height="100%" id="41951ecf98"><feColorMatrix values="0 0 0 0 1 0 0 0 0 1 0 0 0 0 1 0 0 0 1 0" color-interpolation-filters="sRGB"/></filter><g/><clipPath id="bf3ebec00b"><path d="M 26.8125 0.242188 L 308.695312 0.242188 L 308.695312 329.46875 L 26.8125 329.46875 Z M 26.8125 0.242188 " clip-rule="nonzero"/></clipPath><clipPath id="188836d22d"><path d="M 167.753906 0.242188 L 308.695312 80.90625 L 308.695312 248.488281 L 167.753906 329.15625 L 26.8125 248.488281 L 26.8125 80.90625 Z M 167.753906 0.242188 " clip-rule="nonzero"/></clipPath><clipPath id="ea6c3c7dab"><path d="M 26.8125 0.242188 L 308.398438 0.242188 L 308.398438 329.007812 L 26.8125 329.007812 Z M 26.8125 0.242188 " clip-rule="nonzero"/></clipPath><clipPath id="955bb453a7"><path d="M 167.75 0.242188 L 308.691406 80.90625 L 308.691406 248.484375 L 167.75 329.148438 L 26.8125 248.484375 L 26.8125 80.90625 Z M 167.75 0.242188 " clip-rule="nonzero"/></clipPath><clipPath id="1ad44197b7"><path d="M 0 0.242188 L 340 0.242188 L 340 329.757812 L 0 329.757812 Z M 0 0.242188 " clip-rule="nonzero"/></clipPath><mask id="eaa14af73b"><g filter="url(#41951ecf98)"><rect x="-34.05" width="408.6" fill="#000000" y="-32.999999" height="395.999984" fill-opacity="0.92"/></g></mask><clipPath id="df67cefb7d"><path d="M 31.660156 5.949219 L 303.84375 5.949219 L 303.84375 323.851562 L 31.660156 323.851562 Z M 31.660156 5.949219 " clip-rule="nonzero"/></clipPath><clipPath id="2314110882"><path d="M 167.753906 5.949219 L 303.84375 83.84375 L 303.84375 245.554688 L 167.753906 323.445312 L 31.660156 245.554688 L 31.660156 83.84375 Z M 167.753906 5.949219 " clip-rule="nonzero"/></clipPath><clipPath id="f9c132eee5"><path d="M 31.664062 5.949219 L 303.511719 5.949219 L 303.511719 323.484375 L 31.664062 323.484375 Z M 31.664062 5.949219 " clip-rule="nonzero"/></clipPath><clipPath id="64a4e73652"><path d="M 167.75 5.949219 L 303.839844 83.839844 L 303.839844 245.546875 L 167.75 323.4375 L 31.664062 245.546875 L 31.664062 83.839844 Z M 167.75 5.949219 " clip-rule="nonzero"/></clipPath><clipPath id="7255ff4b20"><rect x="0" width="340" y="0" height="330"/></clipPath></defs><g clip-path="url(#bf3ebec00b)"><g clip-path="url(#188836d22d)"><path fill="#bc7c38" d="M 26.8125 0.242188 L 308.695312 0.242188 L 308.695312 329.46875 L 26.8125 329.46875 Z M 26.8125 0.242188 " fill-opacity="1" fill-rule="nonzero"/></g></g><g clip-path="url(#ea6c3c7dab)"><g clip-path="url(#955bb453a7)"><path stroke-linecap="butt" transform="matrix(0.7489, 0, 0, 0.7489, 26.813357, 0.241929)" fill="none" stroke-linejoin="miter" d="M 188.191472 0.000345194 L 376.389305 107.710366 L 376.389305 331.475977 L 188.191472 439.185997 L -0.00114474 331.475977 L -0.00114474 107.710366 Z M 188.191472 0.000345194 " stroke="#708090" stroke-width="40" stroke-opacity="1" stroke-miterlimit="4"/></g></g><g clip-path="url(#1ad44197b7)"><g mask="url(#eaa14af73b)"><g transform="matrix(1, 0, 0, 1, 0, -0.00000000000003425)"><g clip-path="url(#7255ff4b20)"><g clip-path="url(#df67cefb7d)"><g clip-path="url(#2314110882)"><path fill="#bc7c38" d="M 31.660156 5.949219 L 303.84375 5.949219 L 303.84375 323.851562 L 31.660156 323.851562 Z M 31.660156 5.949219 " fill-opacity="1" fill-rule="nonzero"/></g></g><g clip-path="url(#f9c132eee5)"><g clip-path="url(#64a4e73652)"><path stroke-linecap="butt" transform="matrix(0.7489, 0, 0, 0.7489, 31.663792, 5.950841)" fill="none" stroke-linejoin="miter" d="M 181.714729 -0.00216646 L 363.434313 104.004507 L 363.434313 319.930498 L 181.714729 423.937171 L 0.000361389 319.930498 L 0.000361389 104.004507 Z M 181.714729 -0.00216646 " stroke="#f8f8f2" stroke-width="40" stroke-opacity="1" stroke-miterlimit="4"/></g></g></g></g></g></g><g fill="#708090" fill-opacity="1"><g transform="translate(68.701989, 198.227328)"><g><path d="M 3.03125 -37.03125 L 3.78125 -41.046875 C 4.21875 -43.359375 4.335938 -44.992188 4.140625 -45.953125 C 3.953125 -46.921875 3.859375 -47.40625 3.859375 -47.40625 C 3.859375 -47.40625 4.148438 -47.515625 4.734375 -47.734375 C 5.328125 -47.960938 6.316406 -48.078125 7.703125 -48.078125 C 10.566406 -48.078125 12.316406 -47.507812 12.953125 -46.375 C 13.597656 -45.238281 13.675781 -43.363281 13.1875 -40.75 L 12.515625 -37.03125 L 19.859375 -37.03125 C 19.859375 -37.03125 19.941406 -36.894531 20.109375 -36.625 C 20.285156 -36.351562 20.375 -35.972656 20.375 -35.484375 C 20.375 -34.835938 20.160156 -34.316406 19.734375 -33.921875 C 19.316406 -33.523438 18.691406 -33.328125 17.859375 -33.328125 L 11.859375 -33.328125 L 8.296875 -12.96875 C 7.953125 -10.9375 8.132812 -9.335938 8.84375 -8.171875 C 9.5625 -7.015625 10.785156 -6.4375 12.515625 -6.4375 C 14.640625 -6.4375 16.453125 -7.128906 17.953125 -8.515625 C 19.460938 -9.898438 20.613281 -11.359375 21.40625 -12.890625 C 21.90625 -12.890625 22.289062 -12.726562 22.5625 -12.40625 C 22.832031 -12.082031 22.890625 -11.601562 22.734375 -10.96875 C 22.390625 -9.476562 21.539062 -7.878906 20.1875 -6.171875 C 18.832031 -4.472656 17.15625 -3.019531 15.15625 -1.8125 C 13.15625 -0.601562 10.96875 0 8.59375 0 C 5.875 0 3.5625 -0.882812 1.65625 -2.65625 C -0.238281 -4.4375 -1.1875 -6.8125 -1.1875 -9.78125 C -1.1875 -10.613281 -1.132812 -11.671875 -1.03125 -12.953125 C -0.9375 -14.242188 -0.71875 -15.828125 -0.375 -17.703125 L 2.375 -33.328125 L -2.4375 -33.328125 C -2.4375 -33.328125 -2.523438 -33.460938 -2.703125 -33.734375 C -2.878906 -34.015625 -2.96875 -34.398438 -2.96875 -34.890625 C -2.96875 -35.535156 -2.742188 -36.050781 -2.296875 -36.4375 C -1.847656 -36.832031 -1.226562 -37.03125 -0.4375 -37.03125 Z M 3.03125 -37.03125 "/></g></g></g><g fill="#708090" fill-opacity="1"><g transform="translate(90.776959, 198.227328)"><g><path d="M 18.296875 -37.03125 C 22.640625 -37.03125 25.992188 -35.734375 28.359375 -33.140625 C 30.734375 -30.554688 31.921875 -27.140625 31.921875 -22.890625 C 31.921875 -22.097656 31.882812 -21.304688 31.8125 -20.515625 C 31.738281 -19.722656 31.65625 -18.957031 31.5625 -18.21875 C 33.4375 -18.519531 35.039062 -19.140625 36.375 -20.078125 C 37.707031 -21.015625 38.726562 -21.898438 39.4375 -22.734375 C 40.15625 -23.578125 40.515625 -24 40.515625 -24 C 41.554688 -24 42.003906 -23.382812 41.859375 -22.15625 C 41.703125 -21.3125 41.117188 -20.359375 40.109375 -19.296875 C 39.097656 -18.234375 37.789062 -17.28125 36.1875 -16.4375 C 34.582031 -15.601562 32.789062 -15.0625 30.8125 -14.8125 C 29.582031 -10.414062 27.300781 -6.847656 23.96875 -4.109375 C 20.632812 -1.367188 16.445312 0 11.40625 0 C 7.507812 0 4.265625 -1.207031 1.671875 -3.625 C -0.921875 -6.050781 -2.21875 -9.5625 -2.21875 -14.15625 C -2.21875 -18.644531 -1.394531 -22.601562 0.25 -26.03125 C 1.90625 -29.46875 4.273438 -32.160156 7.359375 -34.109375 C 10.453125 -36.054688 14.097656 -37.03125 18.296875 -37.03125 Z M 18.59375 -22.671875 C 18.59375 -23.953125 18.910156 -25.046875 19.546875 -25.953125 C 20.191406 -26.867188 21.132812 -27.453125 22.375 -27.703125 C 21.976562 -31.503906 20.375 -33.40625 17.5625 -33.40625 C 15.726562 -33.40625 13.921875 -32.316406 12.140625 -30.140625 C 10.367188 -27.972656 8.960938 -24.125 7.921875 -18.59375 C 7.722656 -17.65625 7.5625 -16.382812 7.4375 -14.78125 C 7.320312 -13.175781 7.265625 -11.90625 7.265625 -10.96875 C 7.265625 -8.644531 7.695312 -6.851562 8.5625 -5.59375 C 9.425781 -4.332031 10.625 -3.703125 12.15625 -3.703125 C 14.175781 -3.703125 15.988281 -4.773438 17.59375 -6.921875 C 19.195312 -9.078125 20.46875 -12.375 21.40625 -16.8125 C 19.53125 -18.25 18.59375 -20.203125 18.59375 -22.671875 Z M 18.59375 -22.671875 "/></g></g></g><g fill="#708090" fill-opacity="1"><g transform="translate(130.111882, 198.227328)"><g><path d="M 11.328125 -28.375 C 14.546875 -34.144531 18.523438 -37.03125 23.265625 -37.03125 C 26.722656 -37.03125 29.363281 -35.894531 31.1875 -33.625 C 33.007812 -31.351562 33.921875 -28.296875 33.921875 -24.453125 C 33.921875 -23.359375 33.867188 -22.289062 33.765625 -21.25 C 33.671875 -20.21875 33.523438 -19.207031 33.328125 -18.21875 C 34.765625 -18.375 36.050781 -18.757812 37.1875 -19.375 C 38.320312 -19.988281 39.285156 -20.65625 40.078125 -21.375 C 40.867188 -22.09375 41.472656 -22.707031 41.890625 -23.21875 C 42.304688 -23.738281 42.515625 -24 42.515625 -24 C 43.554688 -24 44.003906 -23.382812 43.859375 -22.15625 C 43.703125 -21.3125 43.101562 -20.34375 42.0625 -19.25 C 41.03125 -18.164062 39.6875 -17.203125 38.03125 -16.359375 C 36.382812 -15.523438 34.546875 -15.007812 32.515625 -14.8125 C 31.578125 -11.75 30.234375 -9.109375 28.484375 -6.890625 C 26.734375 -4.671875 24.757812 -2.96875 22.5625 -1.78125 C 20.363281 -0.59375 18.050781 0 15.625 0 C 13.851562 0 12.238281 -0.332031 10.78125 -1 C 9.320312 -1.664062 8.070312 -2.539062 7.03125 -3.625 L 3.109375 18.890625 C 2.710938 21.210938 2.597656 22.851562 2.765625 23.8125 C 2.941406 24.78125 3.03125 25.265625 3.03125 25.265625 C 3.03125 25.265625 2.734375 25.375 2.140625 25.59375 C 1.554688 25.8125 0.570312 25.921875 -0.8125 25.921875 C -3.675781 25.921875 -5.414062 25.34375 -6.03125 24.1875 C -6.65625 23.03125 -6.742188 21.164062 -6.296875 18.59375 L 2.140625 -30 C 2.535156 -32.320312 2.644531 -33.960938 2.46875 -34.921875 C 2.300781 -35.890625 2.21875 -36.375 2.21875 -36.375 C 2.21875 -36.375 2.515625 -36.484375 3.109375 -36.703125 C 3.703125 -36.921875 4.691406 -37.03125 6.078125 -37.03125 C 8.941406 -37.03125 10.679688 -36.460938 11.296875 -35.328125 C 11.910156 -34.191406 12 -32.316406 11.5625 -29.703125 Z M 20.59375 -22.671875 C 20.59375 -23.898438 20.910156 -24.984375 21.546875 -25.921875 C 22.191406 -26.859375 23.109375 -27.453125 24.296875 -27.703125 C 23.847656 -30.117188 22.640625 -31.328125 20.671875 -31.328125 C 18.546875 -31.328125 16.25 -29.378906 13.78125 -25.484375 C 12.738281 -23.804688 11.734375 -21.816406 10.765625 -19.515625 C 9.804688 -17.222656 8.984375 -14.394531 8.296875 -11.03125 L 7.78125 -8.21875 C 8.269531 -7.425781 8.957031 -6.695312 9.84375 -6.03125 C 10.738281 -5.363281 11.925781 -5.03125 13.40625 -5.03125 C 15.4375 -5.03125 17.363281 -6.117188 19.1875 -8.296875 C 21.007812 -10.472656 22.390625 -13.3125 23.328125 -16.8125 C 21.503906 -18.25 20.59375 -20.203125 20.59375 -22.671875 Z M 20.59375 -22.671875 "/></g></g></g><g fill="#708090" fill-opacity="1"><g transform="translate(171.44689, 198.227328)"><g><path d="M 4.140625 -48.15625 C 4.140625 -49.6875 4.660156 -50.957031 5.703125 -51.96875 C 6.742188 -52.976562 7.953125 -53.484375 9.328125 -53.484375 C 10.765625 -53.484375 11.890625 -53.035156 12.703125 -52.140625 C 13.515625 -51.253906 13.921875 -50.144531 13.921875 -48.8125 C 13.921875 -47.53125 13.4375 -46.359375 12.46875 -45.296875 C 11.507812 -44.234375 10.21875 -43.703125 8.59375 -43.703125 C 7.257812 -43.703125 6.179688 -44.117188 5.359375 -44.953125 C 4.546875 -45.796875 4.140625 -46.863281 4.140625 -48.15625 Z M 1.5625 -30 C 1.945312 -32.375 2.050781 -34.03125 1.875 -34.96875 C 1.707031 -35.90625 1.625 -36.375 1.625 -36.375 C 1.625 -36.375 1.921875 -36.484375 2.515625 -36.703125 C 3.109375 -36.921875 4.097656 -37.03125 5.484375 -37.03125 C 8.347656 -37.03125 10.085938 -36.460938 10.703125 -35.328125 C 11.316406 -34.191406 11.40625 -32.316406 10.96875 -29.703125 L 8.078125 -12.96875 C 7.734375 -10.738281 7.84375 -9.09375 8.40625 -8.03125 C 8.976562 -6.96875 9.929688 -6.4375 11.265625 -6.4375 C 12.546875 -6.4375 13.925781 -7.015625 15.40625 -8.171875 C 16.882812 -9.335938 18.09375 -10.910156 19.03125 -12.890625 C 19.53125 -12.890625 19.914062 -12.738281 20.1875 -12.4375 C 20.457031 -12.144531 20.546875 -11.65625 20.453125 -10.96875 C 20.253906 -9.976562 19.796875 -8.863281 19.078125 -7.625 C 18.359375 -6.394531 17.40625 -5.195312 16.21875 -4.03125 C 15.03125 -2.875 13.671875 -1.910156 12.140625 -1.140625 C 10.617188 -0.378906 8.96875 0 7.1875 0 C 4.613281 0 2.523438 -0.800781 0.921875 -2.40625 C -0.679688 -4.007812 -1.484375 -6.296875 -1.484375 -9.265625 C -1.484375 -10.003906 -1.429688 -10.988281 -1.328125 -12.21875 C -1.234375 -13.457031 -1.0625 -14.816406 -0.8125 -16.296875 Z M 1.5625 -30 "/></g></g></g><g fill="#708090" fill-opacity="1"><g transform="translate(191.225465, 198.227328)"><g><path d="M 14.515625 0 C 11.253906 0 8.363281 -0.640625 5.84375 -1.921875 C 3.332031 -3.210938 1.363281 -5.039062 -0.0625 -7.40625 C -1.5 -9.78125 -2.21875 -12.546875 -2.21875 -15.703125 C -2.21875 -18.910156 -1.675781 -21.820312 -0.59375 -24.4375 C 0.488281 -27.0625 1.957031 -29.3125 3.8125 -31.1875 C 5.664062 -33.0625 7.773438 -34.503906 10.140625 -35.515625 C 12.515625 -36.523438 14.960938 -37.03125 17.484375 -37.03125 C 20.546875 -37.03125 23.050781 -36.238281 25 -34.65625 C 26.945312 -33.082031 27.921875 -31.085938 27.921875 -28.671875 C 27.921875 -26.492188 27.34375 -24.664062 26.1875 -23.1875 C 25.03125 -21.707031 23.488281 -20.96875 21.5625 -20.96875 C 20.226562 -20.96875 19.300781 -21.257812 18.78125 -21.84375 C 18.257812 -22.4375 18 -22.734375 18 -22.734375 C 18 -22.734375 18.234375 -22.992188 18.703125 -23.515625 C 19.171875 -24.035156 19.625 -24.828125 20.0625 -25.890625 C 20.507812 -26.953125 20.734375 -28.296875 20.734375 -29.921875 C 20.734375 -30.960938 20.410156 -31.789062 19.765625 -32.40625 C 19.128906 -33.019531 18.316406 -33.328125 17.328125 -33.328125 C 15.796875 -33.328125 14.265625 -32.660156 12.734375 -31.328125 C 11.203125 -29.992188 9.929688 -28.117188 8.921875 -25.703125 C 7.910156 -23.285156 7.40625 -20.445312 7.40625 -17.1875 C 7.40625 -13.726562 8.351562 -10.972656 10.25 -8.921875 C 12.15625 -6.878906 14.835938 -5.859375 18.296875 -5.859375 C 20.816406 -5.859375 23 -6.226562 24.84375 -6.96875 C 26.695312 -7.707031 28.265625 -8.617188 29.546875 -9.703125 C 30.835938 -10.785156 31.804688 -11.847656 32.453125 -12.890625 C 33.535156 -12.890625 33.925781 -12.25 33.625 -10.96875 C 33.425781 -10.175781 32.859375 -9.160156 31.921875 -7.921875 C 30.984375 -6.691406 29.695312 -5.46875 28.0625 -4.25 C 26.4375 -3.039062 24.488281 -2.03125 22.21875 -1.21875 C 19.945312 -0.40625 17.378906 0 14.515625 0 Z M 14.515625 0 "/></g></g></g><g fill="#708090" fill-opacity="1"><g transform="translate(224.634217, 198.227328)"><g><path d="M 18.15625 -20.671875 C 20.863281 -19.285156 22.757812 -17.800781 23.84375 -16.21875 C 24.9375 -14.644531 25.484375 -12.867188 25.484375 -10.890625 C 25.484375 -8.960938 24.914062 -7.171875 23.78125 -5.515625 C 22.644531 -3.859375 20.925781 -2.523438 18.625 -1.515625 C 16.332031 -0.503906 13.382812 0 9.78125 0 C 6.613281 0 4.039062 -0.453125 2.0625 -1.359375 C 0.09375 -2.273438 -1.359375 -3.410156 -2.296875 -4.765625 C -3.234375 -6.128906 -3.703125 -7.453125 -3.703125 -8.734375 C -3.703125 -10.171875 -3.207031 -11.269531 -2.21875 -12.03125 C -1.226562 -12.800781 -0.09375 -13.1875 1.1875 -13.1875 C 2.46875 -13.1875 3.378906 -13.015625 3.921875 -12.671875 C 4.460938 -12.328125 4.734375 -12.15625 4.734375 -12.15625 C 4.734375 -12.15625 4.671875 -11.96875 4.546875 -11.59375 C 4.429688 -11.21875 4.375 -10.6875 4.375 -10 C 4.375 -8.175781 4.863281 -6.679688 5.84375 -5.515625 C 6.832031 -4.359375 8.390625 -3.753906 10.515625 -3.703125 C 12.640625 -3.703125 14.207031 -4.171875 15.21875 -5.109375 C 16.226562 -6.046875 16.734375 -7.132812 16.734375 -8.375 C 16.734375 -9.257812 16.460938 -10.082031 15.921875 -10.84375 C 15.378906 -11.613281 14.441406 -12.34375 13.109375 -13.03125 L 5.859375 -16.890625 C 4.078125 -17.878906 2.554688 -19.050781 1.296875 -20.40625 C 0.0351562 -21.769531 -0.59375 -23.6875 -0.59375 -26.15625 C -0.59375 -29.164062 0.710938 -31.726562 3.328125 -33.84375 C 5.953125 -35.96875 9.878906 -37.03125 15.109375 -37.03125 C 18.171875 -37.03125 20.703125 -36.570312 22.703125 -35.65625 C 24.703125 -34.75 26.179688 -33.613281 27.140625 -32.25 C 28.109375 -30.894531 28.59375 -29.578125 28.59375 -28.296875 C 28.59375 -26.910156 28.097656 -25.820312 27.109375 -25.03125 C 26.117188 -24.25 24.984375 -23.859375 23.703125 -23.859375 C 22.472656 -23.859375 21.570312 -24.03125 21 -24.375 C 20.4375 -24.71875 20.15625 -24.890625 20.15625 -24.890625 C 20.15625 -24.890625 20.210938 -25.085938 20.328125 -25.484375 C 20.453125 -25.878906 20.515625 -26.394531 20.515625 -27.03125 C 20.515625 -28.757812 19.984375 -30.238281 18.921875 -31.46875 C 17.859375 -32.707031 16.289062 -33.328125 14.21875 -33.328125 C 12.195312 -33.328125 10.679688 -32.867188 9.671875 -31.953125 C 8.660156 -31.046875 8.15625 -29.953125 8.15625 -28.671875 C 8.15625 -27.578125 8.445312 -26.6875 9.03125 -26 C 9.625 -25.3125 10.539062 -24.644531 11.78125 -24 Z M 18.15625 -20.671875 "/></g></g></g><g fill="#ffffff" fill-opacity="1"><g transform="translate(74.790888, 198.227896)"><g><path d="M 3.03125 -37.03125 L 3.78125 -41.046875 C 4.21875 -43.359375 4.335938 -44.992188 4.140625 -45.953125 C 3.953125 -46.921875 3.859375 -47.40625 3.859375 -47.40625 C 3.859375 -47.40625 4.148438 -47.515625 4.734375 -47.734375 C 5.328125 -47.960938 6.316406 -48.078125 7.703125 -48.078125 C 10.566406 -48.078125 12.316406 -47.507812 12.953125 -46.375 C 13.597656 -45.238281 13.675781 -43.363281 13.1875 -40.75 L 12.515625 -37.03125 L 19.859375 -37.03125 C 19.859375 -37.03125 19.941406 -36.894531 20.109375 -36.625 C 20.285156 -36.351562 20.375 -35.972656 20.375 -35.484375 C 20.375 -34.835938 20.160156 -34.316406 19.734375 -33.921875 C 19.316406 -33.523438 18.691406 -33.328125 17.859375 -33.328125 L 11.859375 -33.328125 L 8.296875 -12.96875 C 7.953125 -10.9375 8.132812 -9.335938 8.84375 -8.171875 C 9.5625 -7.015625 10.785156 -6.4375 12.515625 -6.4375 C 14.640625 -6.4375 16.453125 -7.128906 17.953125 -8.515625 C 19.460938 -9.898438 20.613281 -11.359375 21.40625 -12.890625 C 21.90625 -12.890625 22.289062 -12.726562 22.5625 -12.40625 C 22.832031 -12.082031 22.890625 -11.601562 22.734375 -10.96875 C 22.390625 -9.476562 21.539062 -7.878906 20.1875 -6.171875 C 18.832031 -4.472656 17.15625 -3.019531 15.15625 -1.8125 C 13.15625 -0.601562 10.96875 0 8.59375 0 C 5.875 0 3.5625 -0.882812 1.65625 -2.65625 C -0.238281 -4.4375 -1.1875 -6.8125 -1.1875 -9.78125 C -1.1875 -10.613281 -1.132812 -11.671875 -1.03125 -12.953125 C -0.9375 -14.242188 -0.71875 -15.828125 -0.375 -17.703125 L 2.375 -33.328125 L -2.4375 -33.328125 C -2.4375 -33.328125 -2.523438 -33.460938 -2.703125 -33.734375 C -2.878906 -34.015625 -2.96875 -34.398438 -2.96875 -34.890625 C -2.96875 -35.535156 -2.742188 -36.050781 -2.296875 -36.4375 C -1.847656 -36.832031 -1.226562 -37.03125 -0.4375 -37.03125 Z M 3.03125 -37.03125 "/></g></g></g><g fill="#ffffff" fill-opacity="1"><g transform="translate(96.86636, 198.227896)"><g><path d="M 18.296875 -37.03125 C 22.640625 -37.03125 25.992188 -35.734375 28.359375 -33.140625 C 30.734375 -30.554688 31.921875 -27.140625 31.921875 -22.890625 C 31.921875 -22.097656 31.882812 -21.304688 31.8125 -20.515625 C 31.738281 -19.722656 31.65625 -18.957031 31.5625 -18.21875 C 33.4375 -18.519531 35.039062 -19.140625 36.375 -20.078125 C 37.707031 -21.015625 38.726562 -21.898438 39.4375 -22.734375 C 40.15625 -23.578125 40.515625 -24 40.515625 -24 C 41.554688 -24 42.003906 -23.382812 41.859375 -22.15625 C 41.703125 -21.3125 41.117188 -20.359375 40.109375 -19.296875 C 39.097656 -18.234375 37.789062 -17.28125 36.1875 -16.4375 C 34.582031 -15.601562 32.789062 -15.0625 30.8125 -14.8125 C 29.582031 -10.414062 27.300781 -6.847656 23.96875 -4.109375 C 20.632812 -1.367188 16.445312 0 11.40625 0 C 7.507812 0 4.265625 -1.207031 1.671875 -3.625 C -0.921875 -6.050781 -2.21875 -9.5625 -2.21875 -14.15625 C -2.21875 -18.644531 -1.394531 -22.601562 0.25 -26.03125 C 1.90625 -29.46875 4.273438 -32.160156 7.359375 -34.109375 C 10.453125 -36.054688 14.097656 -37.03125 18.296875 -37.03125 Z M 18.59375 -22.671875 C 18.59375 -23.953125 18.910156 -25.046875 19.546875 -25.953125 C 20.191406 -26.867188 21.132812 -27.453125 22.375 -27.703125 C 21.976562 -31.503906 20.375 -33.40625 17.5625 -33.40625 C 15.726562 -33.40625 13.921875 -32.316406 12.140625 -30.140625 C 10.367188 -27.972656 8.960938 -24.125 7.921875 -18.59375 C 7.722656 -17.65625 7.5625 -16.382812 7.4375 -14.78125 C 7.320312 -13.175781 7.265625 -11.90625 7.265625 -10.96875 C 7.265625 -8.644531 7.695312 -6.851562 8.5625 -5.59375 C 9.425781 -4.332031 10.625 -3.703125 12.15625 -3.703125 C 14.175781 -3.703125 15.988281 -4.773438 17.59375 -6.921875 C 19.195312 -9.078125 20.46875 -12.375 21.40625 -16.8125 C 19.53125 -18.25 18.59375 -20.203125 18.59375 -22.671875 Z M 18.59375 -22.671875 "/></g></g></g><g fill="#ffffff" fill-opacity="1"><g transform="translate(136.202177, 198.227896)"><g><path d="M 11.328125 -28.375 C 14.546875 -34.144531 18.523438 -37.03125 23.265625 -37.03125 C 26.722656 -37.03125 29.363281 -35.894531 31.1875 -33.625 C 33.007812 -31.351562 33.921875 -28.296875 33.921875 -24.453125 C 33.921875 -23.359375 33.867188 -22.289062 33.765625 -21.25 C 33.671875 -20.21875 33.523438 -19.207031 33.328125 -18.21875 C 34.765625 -18.375 36.050781 -18.757812 37.1875 -19.375 C 38.320312 -19.988281 39.285156 -20.65625 40.078125 -21.375 C 40.867188 -22.09375 41.472656 -22.707031 41.890625 -23.21875 C 42.304688 -23.738281 42.515625 -24 42.515625 -24 C 43.554688 -24 44.003906 -23.382812 43.859375 -22.15625 C 43.703125 -21.3125 43.101562 -20.34375 42.0625 -19.25 C 41.03125 -18.164062 39.6875 -17.203125 38.03125 -16.359375 C 36.382812 -15.523438 34.546875 -15.007812 32.515625 -14.8125 C 31.578125 -11.75 30.234375 -9.109375 28.484375 -6.890625 C 26.734375 -4.671875 24.757812 -2.96875 22.5625 -1.78125 C 20.363281 -0.59375 18.050781 0 15.625 0 C 13.851562 0 12.238281 -0.332031 10.78125 -1 C 9.320312 -1.664062 8.070312 -2.539062 7.03125 -3.625 L 3.109375 18.890625 C 2.710938 21.210938 2.597656 22.851562 2.765625 23.8125 C 2.941406 24.78125 3.03125 25.265625 3.03125 25.265625 C 3.03125 25.265625 2.734375 25.375 2.140625 25.59375 C 1.554688 25.8125 0.570312 25.921875 -0.8125 25.921875 C -3.675781 25.921875 -5.414062 25.34375 -6.03125 24.1875 C -6.65625 23.03125 -6.742188 21.164062 -6.296875 18.59375 L 2.140625 -30 C 2.535156 -32.320312 2.644531 -33.960938 2.46875 -34.921875 C 2.300781 -35.890625 2.21875 -36.375 2.21875 -36.375 C 2.21875 -36.375 2.515625 -36.484375 3.109375 -36.703125 C 3.703125 -36.921875 4.691406 -37.03125 6.078125 -37.03125 C 8.941406 -37.03125 10.679688 -36.460938 11.296875 -35.328125 C 11.910156 -34.191406 12 -32.316406 11.5625 -29.703125 Z M 20.59375 -22.671875 C 20.59375 -23.898438 20.910156 -24.984375 21.546875 -25.921875 C 22.191406 -26.859375 23.109375 -27.453125 24.296875 -27.703125 C 23.847656 -30.117188 22.640625 -31.328125 20.671875 -31.328125 C 18.546875 -31.328125 16.25 -29.378906 13.78125 -25.484375 C 12.738281 -23.804688 11.734375 -21.816406 10.765625 -19.515625 C 9.804688 -17.222656 8.984375 -14.394531 8.296875 -11.03125 L 7.78125 -8.21875 C 8.269531 -7.425781 8.957031 -6.695312 9.84375 -6.03125 C 10.738281 -5.363281 11.925781 -5.03125 13.40625 -5.03125 C 15.4375 -5.03125 17.363281 -6.117188 19.1875 -8.296875 C 21.007812 -10.472656 22.390625 -13.3125 23.328125 -16.8125 C 21.503906 -18.25 20.59375 -20.203125 20.59375 -22.671875 Z M 20.59375 -22.671875 "/></g></g></g><g fill="#ffffff" fill-opacity="1"><g transform="translate(177.538125, 198.227896)"><g><path d="M 4.140625 -48.15625 C 4.140625 -49.6875 4.660156 -50.957031 5.703125 -51.96875 C 6.742188 -52.976562 7.953125 -53.484375 9.328125 -53.484375 C 10.765625 -53.484375 11.890625 -53.035156 12.703125 -52.140625 C 13.515625 -51.253906 13.921875 -50.144531 13.921875 -48.8125 C 13.921875 -47.53125 13.4375 -46.359375 12.46875 -45.296875 C 11.507812 -44.234375 10.21875 -43.703125 8.59375 -43.703125 C 7.257812 -43.703125 6.179688 -44.117188 5.359375 -44.953125 C 4.546875 -45.796875 4.140625 -46.863281 4.140625 -48.15625 Z M 1.5625 -30 C 1.945312 -32.375 2.050781 -34.03125 1.875 -34.96875 C 1.707031 -35.90625 1.625 -36.375 1.625 -36.375 C 1.625 -36.375 1.921875 -36.484375 2.515625 -36.703125 C 3.109375 -36.921875 4.097656 -37.03125 5.484375 -37.03125 C 8.347656 -37.03125 10.085938 -36.460938 10.703125 -35.328125 C 11.316406 -34.191406 11.40625 -32.316406 10.96875 -29.703125 L 8.078125 -12.96875 C 7.734375 -10.738281 7.84375 -9.09375 8.40625 -8.03125 C 8.976562 -6.96875 9.929688 -6.4375 11.265625 -6.4375 C 12.546875 -6.4375 13.925781 -7.015625 15.40625 -8.171875 C 16.882812 -9.335938 18.09375 -10.910156 19.03125 -12.890625 C 19.53125 -12.890625 19.914062 -12.738281 20.1875 -12.4375 C 20.457031 -12.144531 20.546875 -11.65625 20.453125 -10.96875 C 20.253906 -9.976562 19.796875 -8.863281 19.078125 -7.625 C 18.359375 -6.394531 17.40625 -5.195312 16.21875 -4.03125 C 15.03125 -2.875 13.671875 -1.910156 12.140625 -1.140625 C 10.617188 -0.378906 8.96875 0 7.1875 0 C 4.613281 0 2.523438 -0.800781 0.921875 -2.40625 C -0.679688 -4.007812 -1.484375 -6.296875 -1.484375 -9.265625 C -1.484375 -10.003906 -1.429688 -10.988281 -1.328125 -12.21875 C -1.234375 -13.457031 -1.0625 -14.816406 -0.8125 -16.296875 Z M 1.5625 -30 "/></g></g></g><g fill="#ffffff" fill-opacity="1"><g transform="translate(197.317149, 198.227896)"><g><path d="M 14.515625 0 C 11.253906 0 8.363281 -0.640625 5.84375 -1.921875 C 3.332031 -3.210938 1.363281 -5.039062 -0.0625 -7.40625 C -1.5 -9.78125 -2.21875 -12.546875 -2.21875 -15.703125 C -2.21875 -18.910156 -1.675781 -21.820312 -0.59375 -24.4375 C 0.488281 -27.0625 1.957031 -29.3125 3.8125 -31.1875 C 5.664062 -33.0625 7.773438 -34.503906 10.140625 -35.515625 C 12.515625 -36.523438 14.960938 -37.03125 17.484375 -37.03125 C 20.546875 -37.03125 23.050781 -36.238281 25 -34.65625 C 26.945312 -33.082031 27.921875 -31.085938 27.921875 -28.671875 C 27.921875 -26.492188 27.34375 -24.664062 26.1875 -23.1875 C 25.03125 -21.707031 23.488281 -20.96875 21.5625 -20.96875 C 20.226562 -20.96875 19.300781 -21.257812 18.78125 -21.84375 C 18.257812 -22.4375 18 -22.734375 18 -22.734375 C 18 -22.734375 18.234375 -22.992188 18.703125 -23.515625 C 19.171875 -24.035156 19.625 -24.828125 20.0625 -25.890625 C 20.507812 -26.953125 20.734375 -28.296875 20.734375 -29.921875 C 20.734375 -30.960938 20.410156 -31.789062 19.765625 -32.40625 C 19.128906 -33.019531 18.316406 -33.328125 17.328125 -33.328125 C 15.796875 -33.328125 14.265625 -32.660156 12.734375 -31.328125 C 11.203125 -29.992188 9.929688 -28.117188 8.921875 -25.703125 C 7.910156 -23.285156 7.40625 -20.445312 7.40625 -17.1875 C 7.40625 -13.726562 8.351562 -10.972656 10.25 -8.921875 C 12.15625 -6.878906 14.835938 -5.859375 18.296875 -5.859375 C 20.816406 -5.859375 23 -6.226562 24.84375 -6.96875 C 26.695312 -7.707031 28.265625 -8.617188 29.546875 -9.703125 C 30.835938 -10.785156 31.804688 -11.847656 32.453125 -12.890625 C 33.535156 -12.890625 33.925781 -12.25 33.625 -10.96875 C 33.425781 -10.175781 32.859375 -9.160156 31.921875 -7.921875 C 30.984375 -6.691406 29.695312 -5.46875 28.0625 -4.25 C 26.4375 -3.039062 24.488281 -2.03125 22.21875 -1.21875 C 19.945312 -0.40625 17.378906 0 14.515625 0 Z M 14.515625 0 "/></g></g></g><g fill="#ffffff" fill-opacity="1"><g transform="translate(230.72666, 198.227896)"><g><path d="M 18.15625 -20.671875 C 20.863281 -19.285156 22.757812 -17.800781 23.84375 -16.21875 C 24.9375 -14.644531 25.484375 -12.867188 25.484375 -10.890625 C 25.484375 -8.960938 24.914062 -7.171875 23.78125 -5.515625 C 22.644531 -3.859375 20.925781 -2.523438 18.625 -1.515625 C 16.332031 -0.503906 13.382812 0 9.78125 0 C 6.613281 0 4.039062 -0.453125 2.0625 -1.359375 C 0.09375 -2.273438 -1.359375 -3.410156 -2.296875 -4.765625 C -3.234375 -6.128906 -3.703125 -7.453125 -3.703125 -8.734375 C -3.703125 -10.171875 -3.207031 -11.269531 -2.21875 -12.03125 C -1.226562 -12.800781 -0.09375 -13.1875 1.1875 -13.1875 C 2.46875 -13.1875 3.378906 -13.015625 3.921875 -12.671875 C 4.460938 -12.328125 4.734375 -12.15625 4.734375 -12.15625 C 4.734375 -12.15625 4.671875 -11.96875 4.546875 -11.59375 C 4.429688 -11.21875 4.375 -10.6875 4.375 -10 C 4.375 -8.175781 4.863281 -6.679688 5.84375 -5.515625 C 6.832031 -4.359375 8.390625 -3.753906 10.515625 -3.703125 C 12.640625 -3.703125 14.207031 -4.171875 15.21875 -5.109375 C 16.226562 -6.046875 16.734375 -7.132812 16.734375 -8.375 C 16.734375 -9.257812 16.460938 -10.082031 15.921875 -10.84375 C 15.378906 -11.613281 14.441406 -12.34375 13.109375 -13.03125 L 5.859375 -16.890625 C 4.078125 -17.878906 2.554688 -19.050781 1.296875 -20.40625 C 0.0351562 -21.769531 -0.59375 -23.6875 -0.59375 -26.15625 C -0.59375 -29.164062 0.710938 -31.726562 3.328125 -33.84375 C 5.953125 -35.96875 9.878906 -37.03125 15.109375 -37.03125 C 18.171875 -37.03125 20.703125 -36.570312 22.703125 -35.65625 C 24.703125 -34.75 26.179688 -33.613281 27.140625 -32.25 C 28.109375 -30.894531 28.59375 -29.578125 28.59375 -28.296875 C 28.59375 -26.910156 28.097656 -25.820312 27.109375 -25.03125 C 26.117188 -24.25 24.984375 -23.859375 23.703125 -23.859375 C 22.472656 -23.859375 21.570312 -24.03125 21 -24.375 C 20.4375 -24.71875 20.15625 -24.890625 20.15625 -24.890625 C 20.15625 -24.890625 20.210938 -25.085938 20.328125 -25.484375 C 20.453125 -25.878906 20.515625 -26.394531 20.515625 -27.03125 C 20.515625 -28.757812 19.984375 -30.238281 18.921875 -31.46875 C 17.859375 -32.707031 16.289062 -33.328125 14.21875 -33.328125 C 12.195312 -33.328125 10.679688 -32.867188 9.671875 -31.953125 C 8.660156 -31.046875 8.15625 -29.953125 8.15625 -28.671875 C 8.15625 -27.578125 8.445312 -26.6875 9.03125 -26 C 9.625 -25.3125 10.539062 -24.644531 11.78125 -24 Z M 18.15625 -20.671875 "/></g></g></g><path stroke-linecap="round" transform="matrix(0.7489, 0, 0, 0.7489, 80.525567, 89.815754)" fill="none" stroke-linejoin="miter" d="M 3.001562 3.00006 L 17.674119 3.00006 " stroke="#b1d3e1" stroke-width="6" stroke-opacity="1" stroke-miterlimit="4"/><path stroke-linecap="round" transform="matrix(0.7489, 0, 0, 0.7489, 82.487005, 94.777035)" fill="none" stroke-linejoin="miter" d="M 3.000894 2.999602 L 20.474432 2.999602 " stroke="#708090" stroke-width="6" stroke-opacity="1" stroke-miterlimit="4"/><path stroke-linecap="round" transform="matrix(0.7489, 0, 0, 0.7489, 112.193275, 104.428289)" fill="none" stroke-linejoin="miter" d="M 3.001909 3.001057 L 9.490591 3.001057 " stroke="#b1d3e1" stroke-width="6" stroke-opacity="1" stroke-miterlimit="4"/><path stroke-linecap="round" transform="matrix(0.7489, 0, 0, 0.7489, 115.77432, 109.097726)" fill="none" stroke-linejoin="miter" d="M 2.998011 2.999096 L 9.491908 2.999096 " stroke="#708090" stroke-width="6" stroke-opacity="1" stroke-miterlimit="4"/><path stroke-linecap="round" transform="matrix(0.7489, 0, 0, 0.7489, 108.414715, 89.815754)" fill="none" stroke-linejoin="miter" d="M 2.998318 3.00006 L 32.072199 3.00006 " stroke="#b1d3e1" stroke-width="6" stroke-opacity="1" stroke-miterlimit="4"/><path stroke-linecap="round" transform="matrix(0.7489, 0, 0, 0.7489, 111.995753, 95.506636)" fill="none" stroke-linejoin="miter" d="M 2.999645 3.00076 L 32.073526 3.00076 " stroke="#708090" stroke-width="6" stroke-opacity="1" stroke-miterlimit="4"/><path stroke-linecap="round" transform="matrix(0.7489, 0, 0, 0.7489, 79.694529, 102.969091)" fill="none" stroke-linejoin="miter" d="M 3.000235 2.998734 L 24.197984 2.998734 " stroke="#b1d3e1" stroke-width="6" stroke-opacity="1" stroke-miterlimit="4"/><path stroke-linecap="round" transform="matrix(0.7489, 0, 0, 0.7489, 82.487005, 107.638526)" fill="none" stroke-linejoin="miter" d="M 3.000894 3.001992 L 24.198643 3.001992 " stroke="#708090" stroke-width="6" stroke-opacity="1" stroke-miterlimit="4"/><path stroke-linecap="round" transform="matrix(0.7489, 0.000000000000010224, -0.000000000000010224, 0.7489, 130.003176, 103.69869)" fill="none" stroke-linejoin="miter" d="M 3.000165 2.999896 L 9.488846 2.999896 " stroke="#b1d3e1" stroke-width="6" stroke-opacity="1" stroke-miterlimit="4"/><path stroke-linecap="round" transform="matrix(0.7489, 0, 0, 0.7489, 133.082853, 108.368127)" fill="none" stroke-linejoin="miter" d="M 2.998093 2.997935 L 9.49199 2.997935 " stroke="#708090" stroke-width="6" stroke-opacity="1" stroke-miterlimit="4"/><path stroke-linecap="round" transform="matrix(0.7489, 0, 0, 0.7489, 105.721181, 120.975263)" fill="none" stroke-linejoin="miter" d="M 3.001159 3.000925 L 13.756513 3.000925 " stroke="#708090" stroke-width="6" stroke-opacity="1" stroke-miterlimit="4"/><path stroke-linecap="round" transform="matrix(0.7489, 0, 0, 0.7489, 103.225201, 115.497665)" fill="none" stroke-linejoin="miter" d="M 3.001008 3.002307 L 13.756362 3.002307 " stroke="#b1d3e1" stroke-width="6" stroke-opacity="1" stroke-miterlimit="4"/><path stroke-linecap="round" transform="matrix(0.7489, 0.000000000000007283, -0.000000000000007283, 0.7489, 177.585286, 235.153189)" fill="none" stroke-linejoin="miter" d="M 3.000059 2.998061 L 32.073941 2.998061 " stroke="#708090" stroke-width="6" stroke-opacity="1" stroke-miterlimit="4"/><path stroke-linecap="round" transform="matrix(0.7489, 0, 0, 0.7489, 176.10805, 230.655035)" fill="none" stroke-linejoin="miter" d="M 3.000959 3.000812 L 32.069625 3.000812 " stroke="#b1d3e1" stroke-width="6" stroke-opacity="1" stroke-miterlimit="4"/><path stroke-linecap="round" transform="matrix(0.7489, 0, 0, 0.7489, 165.036174, 248.420806)" fill="none" stroke-linejoin="miter" d="M 2.99783 3.000616 L 13.7584 3.000616 " stroke="#708090" stroke-width="6" stroke-opacity="1" stroke-miterlimit="4"/><path stroke-linecap="round" transform="matrix(0.7489, 0, 0, 0.7489, 163.55894, 241.394804)" fill="none" stroke-linejoin="miter" d="M 2.998727 2.998825 L 13.759297 2.998825 " stroke="#b1d3e1" stroke-width="6" stroke-opacity="1" stroke-miterlimit="4"/><path stroke-linecap="round" transform="matrix(0.7489, 0, 0, 0.7489, 186.088537, 247.691243)" fill="none" stroke-linejoin="miter" d="M 3.000934 2.999407 L 44.436692 2.999407 " stroke="#708090" stroke-width="6" stroke-opacity="1" stroke-miterlimit="4"/><path stroke-linecap="round" transform="matrix(0.7489, 0, 0, 0.7489, 180.978492, 242.124412)" fill="none" stroke-linejoin="miter" d="M 3.001829 2.999974 L 44.437587 2.999974 " stroke="#b1d3e1" stroke-width="6" stroke-opacity="1" stroke-miterlimit="4"/><path stroke-linecap="round" transform="matrix(0.7489, 0, 0, 0.7489, 187.643235, 261.902063)" fill="none" stroke-linejoin="miter" d="M 3.000921 2.999564 L 9.489602 2.999564 " stroke="#708090" stroke-width="6" stroke-opacity="1" stroke-miterlimit="4"/><path stroke-linecap="round" transform="matrix(0.7489, 0, 0, 0.7489, 184.563735, 254.27747)" fill="none" stroke-linejoin="miter" d="M 2.99754 2.999021 L 9.491437 2.999021 " stroke="#b1d3e1" stroke-width="6" stroke-opacity="1" stroke-miterlimit="4"/><path stroke-linecap="round" transform="matrix(0.7489, 0, 0, 0.7489, 223.050422, 89.259732)" fill="none" stroke-linejoin="miter" d="M 2.999669 3.001842 L 32.073551 3.001842 " stroke="#708090" stroke-width="6" stroke-opacity="1" stroke-miterlimit="4"/><path stroke-linecap="round" transform="matrix(0.7489, 0, 0, 0.7489, 174.015912, 85.319894)" fill="none" stroke-linejoin="miter" d="M 2.998806 2.999749 L 44.434564 2.999749 " stroke="#b1d3e1" stroke-width="6" stroke-opacity="1" stroke-miterlimit="4"/><path stroke-linecap="round" transform="matrix(0.7489, 0, 0, 0.7489, 181.105263, 89.989331)" fill="none" stroke-linejoin="miter" d="M 2.999464 2.997787 L 44.435222 2.997787 " stroke="#708090" stroke-width="6" stroke-opacity="1" stroke-miterlimit="4"/><path stroke-linecap="round" transform="matrix(0.7489, 0, 0, 0.7489, 218.806218, 84.590295)" fill="none" stroke-linejoin="miter" d="M 3.002361 2.998587 L 32.071027 2.998587 " stroke="#b1d3e1" stroke-width="6" stroke-opacity="1" stroke-miterlimit="4"/><path stroke-linecap="round" transform="matrix(0.7489, 0, 0, 0.7489, 186.783303, 71.583052)" fill="none" stroke-linejoin="miter" d="M 3.001664 2.997826 L 32.07033 2.997826 " stroke="#b1d3e1" stroke-width="6" stroke-opacity="1" stroke-miterlimit="4"/><path stroke-linecap="round" transform="matrix(0.7489, 0, 0, 0.7489, 190.364348, 77.273935)" fill="none" stroke-linejoin="miter" d="M 2.997766 2.998526 L 32.071647 2.998526 " stroke="#708090" stroke-width="6" stroke-opacity="1" stroke-miterlimit="4"/><path stroke-linecap="round" transform="matrix(0.7489, 0, 0, 0.7489, 215.544891, 103.854614)" fill="none" stroke-linejoin="miter" d="M 3.001839 3.00033 L 13.757193 3.00033 " stroke="#708090" stroke-width="6" stroke-opacity="1" stroke-miterlimit="4"/><path stroke-linecap="round" transform="matrix(0.7489, 0, 0, 0.7489, 213.048886, 98.377014)" fill="none" stroke-linejoin="miter" d="M 3.00172 3.001716 L 13.757074 3.001716 " stroke="#b1d3e1" stroke-width="6" stroke-opacity="1" stroke-miterlimit="4"/></svg>